<svg width="41" height="40" viewBox="0 0 41 40" fill="none" xmlns="http://www.w3.org/2000/svg">
<g clip-path="url(#clip0)">
<path d="M17.0717 19.4001C17.4813 19.2079 17.7239 18.6729 17.7239 18.0122C17.7239 16.9001 16.9713 16.5156 15.9597 16.5156C14.5467 16.5156 14.1286 17.3768 14.1286 17.9704C14.1286 18.3217 14.2037 18.4388 14.6886 18.4388C15.0902 18.4388 15.2071 18.2713 15.2071 18.0208C15.2071 17.6863 15.4079 17.4604 15.9514 17.4604C16.4028 17.4604 16.6872 17.6445 16.6872 18.1962C16.6872 18.9152 16.3359 19.0156 15.9178 19.0156C15.6752 19.0156 15.5916 19.2329 15.5916 19.442C15.5916 19.6592 15.6752 19.8683 15.9178 19.8683C16.4528 19.8683 16.8376 20.0441 16.8376 20.6627V20.8217C16.8376 21.457 16.57 21.7247 15.9429 21.7247C15.4076 21.7247 15.0731 21.4903 15.0731 21.1143C15.0731 20.8467 14.9562 20.7295 14.5131 20.7295C14.1368 20.7295 13.9946 20.8217 13.9946 21.1561C13.9946 21.8333 14.5464 22.6777 15.9178 22.6777C17.0214 22.6777 17.9244 22.1678 17.9244 20.8217V20.6627C17.9244 19.9687 17.5649 19.5924 17.0717 19.4001Z" fill="#686C7D"/>
<path d="M20.5584 17.4687C21.0183 17.4687 21.4114 17.6945 21.4114 18.0876C21.4114 18.4135 21.679 18.4971 21.9799 18.4971C22.3226 18.4971 22.4899 18.3885 22.4899 18.0458C22.4899 17.3433 21.9213 16.5156 20.5834 16.5156C19.4464 16.5156 18.5684 17.0341 18.5684 18.4303V20.7634C18.5684 22.1595 19.4296 22.678 20.5334 22.678C21.6372 22.678 22.4899 22.1595 22.4899 20.7634V20.6462C22.4899 19.3251 21.704 18.9155 20.7592 18.9155C20.3243 18.9155 19.923 19.0156 19.6472 19.3419V18.4303C19.6472 17.7699 19.9899 17.4687 20.5584 17.4687ZM20.5251 19.7682C21.0769 19.7682 21.4031 20.0273 21.4031 20.7213V20.8302C21.4031 21.4906 21.0769 21.7918 20.5334 21.7918C19.9816 21.7918 19.6472 21.4906 19.6472 20.8302V20.6462C19.6472 20.0105 19.9984 19.7682 20.5251 19.7682Z" fill="#686C7D"/>
<path d="M27.0807 18.4303C27.0807 17.0341 26.2195 16.5156 25.1157 16.5156C24.0118 16.5156 23.1592 17.0341 23.1592 18.4303V20.7631C23.1592 22.1595 24.0118 22.678 25.1157 22.678C26.2195 22.678 27.0807 22.1595 27.0807 20.7631V18.4303ZM25.9937 20.7631C25.9937 21.4238 25.6592 21.7247 25.1157 21.7247C24.5639 21.7247 24.2459 21.4238 24.2459 20.7631V18.4303C24.2459 17.7699 24.5639 17.4687 25.1157 17.4687C25.6592 17.4687 25.9937 17.7699 25.9937 18.4303V20.7631Z" fill="#686C7D"/>
<path d="M40.5 19.9661C40.4918 15.1541 38.7513 10.5084 35.5967 6.8811C35.3843 6.63696 35.0142 6.61133 34.77 6.82373C34.5259 7.03613 34.5002 7.40631 34.7126 7.65045C36.7479 9.99054 38.1575 12.7811 38.8459 15.7635C37.8312 14.5364 36.3661 13.4164 34.4948 12.4597C33.0916 11.7426 31.5175 11.1456 29.8201 10.6799C29.3544 8.98254 28.7578 7.40845 28.0403 6.00525C27.0836 4.13391 25.9639 2.66876 24.7368 1.65436C27.7061 2.33978 30.4857 3.74023 32.8187 5.7605C33.0632 5.97229 33.4333 5.94574 33.6451 5.70129C33.8569 5.45654 33.8304 5.08636 33.5856 4.87457C29.9553 1.73126 25.308 0 20.5 0C15.1579 0 10.1353 2.08038 6.35785 5.85785C2.58038 9.63531 0.5 14.6579 0.5 20V20.0339C0.50824 24.8438 2.24744 29.4882 5.3999 33.1146C5.51556 33.248 5.67853 33.316 5.8421 33.316C5.97852 33.316 6.11554 33.269 6.22632 33.1726C6.47076 32.9602 6.4964 32.59 6.284 32.3459C4.25092 30.0067 2.84222 27.2174 2.15436 24.2365C3.16876 25.4636 4.63391 26.5836 6.50555 27.5403C7.90845 28.2574 9.48254 28.8544 11.1799 29.3201C11.6456 31.0175 12.2426 32.5916 12.9597 33.9948C13.9164 35.8661 15.0364 37.3312 16.2635 38.3456C13.2826 37.6578 10.4933 36.2491 8.15411 34.2157C7.90997 34.0036 7.53979 34.0292 7.3277 34.2737C7.1153 34.5178 7.14124 34.888 7.38538 35.1001C11.0121 38.2526 15.6562 39.9918 20.4661 40H20.5C25.8421 40 30.8647 37.9196 34.6422 34.1422C38.4196 30.3647 40.5 25.3421 40.5 20C40.5 19.9887 40.5 19.9774 40.5 19.9661ZM7.1864 6.6864C9.72699 4.14612 12.8654 2.42096 16.2846 1.64276C15.0099 2.69012 13.8527 4.21661 12.881 6.16058L12.2328 4.22089C12.1299 3.91388 11.7982 3.74817 11.4912 3.85071C11.1842 3.95325 11.0188 4.28528 11.1213 4.59229L12.241 7.94281C12.3231 8.18817 12.5517 8.3432 12.7968 8.3432C12.8584 8.3432 12.921 8.33344 12.9826 8.31299L16.3331 7.19299C16.6401 7.09045 16.8058 6.75842 16.7033 6.45142C16.6008 6.14471 16.269 5.979 15.9617 6.08154L13.8829 6.77643C15.6447 3.19641 18.015 1.17188 20.5 1.17188C22.92 1.17188 25.2275 3.078 26.9969 6.539C27.588 7.69531 28.0937 8.97583 28.5072 10.3513C26.0161 9.78577 23.3012 9.48822 20.5 9.48822C15.2232 9.48822 10.2534 10.5435 6.50555 12.4597C4.62842 13.4195 3.15991 14.5432 2.1452 15.7745C2.92432 12.3593 4.64856 9.22455 7.1864 6.6864ZM10.8513 28.0072C9.47614 27.5937 8.19531 27.088 7.039 26.4969C3.578 24.7275 1.67188 22.42 1.67188 20C1.67188 17.58 3.578 15.2725 7.039 13.5031C8.19592 12.9117 9.47736 12.4057 10.8537 11.9919C10.2794 14.5132 9.98822 17.2018 9.98822 20C9.98822 22.8012 10.2858 25.5161 10.8513 28.0072ZM20.5 38.8281C18.08 38.8281 15.7725 36.922 14.0031 33.461C13.412 32.3047 12.9063 31.0242 12.4928 29.6487C14.9839 30.2142 17.6988 30.5118 20.5 30.5118C21.884 30.5118 23.2579 30.4385 24.6003 30.2933L23.3201 32.0837C23.1318 32.3468 23.1926 32.713 23.4559 32.9013C23.5591 32.9749 23.6781 33.0106 23.7962 33.0106C23.9787 33.0106 24.1588 32.9254 24.2732 32.7655L26.3279 29.8917C26.3963 29.7961 26.4338 29.6832 26.4372 29.5676C26.4384 29.5319 26.4366 29.4958 26.4314 29.4592C26.403 29.2651 26.2828 29.1074 26.121 29.0234L23.3183 27.0193C23.0552 26.8314 22.6893 26.8918 22.501 27.1552C22.3127 27.4182 22.3735 27.7844 22.6368 27.9727L24.2814 29.1486C23.0421 29.2758 21.7756 29.3399 20.4997 29.3399C17.5505 29.3399 14.7068 29.0015 12.1388 28.3609C11.4982 25.7932 11.1598 22.9492 11.1598 20C11.1598 17.0602 11.4906 14.249 12.1428 11.6382C14.7099 10.9982 17.5523 10.6601 20.5 10.6601C23.4492 10.6601 26.2932 10.9985 28.8609 11.6391C29.5015 14.2068 29.8399 17.0508 29.8399 20C29.8399 23.0527 29.4774 25.9924 28.7925 28.6301C28.777 28.67 28.766 28.7122 28.7596 28.7552C28.3055 30.4715 27.7144 32.0578 26.9969 33.461C25.2275 36.922 22.92 38.8281 20.5 38.8281ZM33.8136 33.3136C31.2755 35.8514 28.1407 37.5757 24.7255 38.3551C25.9568 37.3401 27.0805 35.8719 28.0403 33.9948C28.7581 32.5909 29.355 31.0159 29.8207 29.3173C33.9418 28.1876 37.0814 26.3776 38.8575 24.2136C38.0797 27.6334 36.3545 30.7727 33.8136 33.3136ZM36.6096 24.7952C34.9998 26.1139 32.7806 27.2141 30.1494 28.0035C30.7145 25.5133 31.0118 22.7997 31.0118 20C31.0118 17.1988 30.7142 14.4839 30.1487 11.9925C31.5239 12.4063 32.8047 12.9117 33.961 13.5031C37.422 15.2725 39.3281 17.58 39.3281 20C39.3281 21.6803 38.3882 23.3386 36.6096 24.7952Z" fill="#686C7D"/>
</g>
<defs>
<clipPath id="clip0">
<rect width="40" height="40" fill="white" transform="translate(0.5)"/>
</clipPath>
</defs>
</svg>
