<svg width="25" height="25" viewBox="0 0 25 25" fill="none" xmlns="http://www.w3.org/2000/svg">
<path d="M5 12.2502V12.5002H5.25H22.25C22.4489 12.5002 22.6397 12.5793 22.7803 12.7199C22.921 12.8606 23 13.0513 23 13.2502C23 13.4491 22.921 13.6399 22.7803 13.7806C22.6397 13.9212 22.4489 14.0002 22.25 14.0002H21.25H21V14.2502L21 17.2495C21 17.2497 21 17.2499 21 17.2501C20.9981 17.8166 20.821 18.3687 20.4929 18.8306C20.1647 19.2927 19.7015 19.6419 19.1669 19.8302L19 19.889V20.066V21.2502C19 21.4491 18.921 21.6399 18.7803 21.7806C18.6397 21.9212 18.4489 22.0002 18.25 22.0002C18.0511 22.0002 17.8603 21.9212 17.7197 21.7806C17.579 21.6399 17.5 21.4491 17.5 21.2502V20.2502V20.0002H17.25H7.25H7V20.2502V21.2502C7 21.4491 6.92098 21.6399 6.78033 21.7806C6.63968 21.9212 6.44891 22.0002 6.25 22.0002C6.05109 22.0002 5.86032 21.9212 5.71967 21.7806C5.57902 21.6399 5.5 21.4491 5.5 21.2502V20.0659V19.8889L5.33305 19.8301C4.79848 19.6418 4.33529 19.2927 4.00709 18.8306C3.67895 18.3687 3.50182 17.8165 3.5 17.2498V14.2502V14.0002H3.25H2.25C2.05109 14.0002 1.86032 13.9212 1.71967 13.7806C1.57902 13.6399 1.5 13.4491 1.5 13.2502C1.5 13.0513 1.57902 12.8606 1.71967 12.7199C1.86032 12.5793 2.05109 12.5002 2.25 12.5002H3.25H3.5V12.2502L3.5 6.66039L3.5 6.65987C3.49872 6.0502 3.6464 5.44945 3.93021 4.90986C4.21401 4.37027 4.62535 3.90819 5.12843 3.5638C5.63152 3.21941 6.21113 3.00315 6.81684 2.93381C7.42256 2.86448 8.03605 2.94417 8.60394 3.16596L8.73185 3.21592L8.84262 3.13478C9.46647 2.67781 10.2331 2.45874 11.0042 2.51705C11.7752 2.57536 12.5001 2.90717 13.0481 3.45267C13.0481 3.45271 13.0482 3.45276 13.0482 3.4528L14.1084 4.51295L14.1084 4.513C14.1781 4.58261 14.2333 4.66527 14.271 4.75624C14.3087 4.84722 14.3281 4.94473 14.3281 5.0432C14.3281 5.14168 14.3087 5.23919 14.271 5.33017C14.2333 5.42114 14.1781 5.5038 14.1084 5.57341L14.1084 5.57346L10.5732 9.10862L10.5732 9.10866C10.5036 9.17831 10.4209 9.23356 10.3299 9.27126C10.239 9.30895 10.1414 9.32836 10.043 9.32836C9.94449 9.32836 9.84698 9.30895 9.75601 9.27126C9.66503 9.23356 9.58238 9.17831 9.51276 9.10866L9.51271 9.10861L8.45275 8.0487C8.45262 8.04857 8.45249 8.04843 8.45236 8.0483C8.03095 7.62373 7.73525 7.09081 7.59802 6.50854C7.46075 5.9261 7.48741 5.31702 7.67503 4.74879L7.77287 4.45248L7.46236 4.42163C7.01568 4.37725 6.56596 4.4678 6.17128 4.68159C5.81404 4.87363 5.51609 5.15967 5.30965 5.50879C5.10335 5.85767 4.99628 6.25628 5 6.66157V12.2502ZM9.51291 4.51267L9.51251 4.51307C9.18479 4.8414 9.00074 5.28635 9.00074 5.75024C9.00075 6.21414 9.18482 6.65908 9.51254 6.9874L9.51271 6.98756L9.86623 7.34107L10.043 7.51785L10.2198 7.34107L12.3408 5.21998L12.5176 5.04321L12.3408 4.86643L11.9873 4.51291L11.9871 4.51267C11.6587 4.18514 11.2138 4.00121 10.75 4.00121C10.2862 4.00121 9.84131 4.18514 9.51291 4.51267ZM19.5 17.2504V17.2502V14.2502V14.0002H19.25H5.25H5V14.2502V17.2502V17.2504C5.00022 17.5818 5.13197 17.8996 5.36631 18.1339C5.60065 18.3683 5.91842 18.5 6.24983 18.5002H6.25L18.25 18.5002L18.2502 18.5002C18.5816 18.5 18.8993 18.3683 19.1337 18.1339C19.368 17.8996 19.4998 17.5818 19.5 17.2504Z" fill="white" stroke="#12A3EC" stroke-width="0.5"/>
</svg>
