<svg width="169" height="41" viewBox="0 0 169 41" fill="none" xmlns="http://www.w3.org/2000/svg">
<g clip-path="url(#clip0)">
<path fill-rule="evenodd" clip-rule="evenodd" d="M32.8912 0.500001C33.1899 0.500402 33.4651 0.66137 33.6105 0.920793L46.0841 23.1727L64.9554 2.24209C65.2227 1.94552 65.6658 1.88285 66.0058 2.09353C66.3458 2.3042 66.4843 2.72727 66.3342 3.09652L52.943 36.0359C52.824 36.3287 52.5465 36.5274 52.2295 36.5471C51.9126 36.5667 51.6124 36.4036 51.4578 36.1278L45.7689 25.9791L33.5043 39.5821C33.3469 39.7567 33.1219 39.8559 32.8862 39.8548C32.6504 39.8537 32.4264 39.7523 32.2707 39.5764L20.0481 25.7603L14.1983 36.1298C14.0418 36.4073 13.7379 36.5697 13.4187 36.5464C13.0994 36.5232 12.8226 36.3185 12.7085 36.0213L0.054374 3.08181C-0.0880067 2.71119 0.0569861 2.29239 0.398662 2.08737C0.740341 1.88236 1.18066 1.94995 1.44422 2.24787L19.7486 22.9387L32.1707 0.918858C32.3168 0.659827 32.5924 0.499599 32.8912 0.500001ZM20.9034 24.2441L32.8959 37.8L44.9197 24.4642L32.8877 3.00017L20.9034 24.2441ZM18.8933 24.4549L3.22842 6.74775L13.6211 33.8005L18.8933 24.4549ZM46.9333 24.6877L52.0596 33.8326L63.04 6.82337L46.9333 24.6877Z" fill="#33353D"/>
<path fill-rule="evenodd" clip-rule="evenodd" d="M32.8911 2.95996C33.1804 2.96037 33.4483 3.11139 33.5971 3.35795L45.8635 23.676L62.898 5.10676C63.1644 4.81641 63.6005 4.75474 63.9378 4.95975C64.275 5.16476 64.4185 5.5788 64.2798 5.94679L52.9506 36.0166C52.8395 36.3113 52.5685 36.5169 52.2532 36.5455C51.9379 36.5741 51.6339 36.4208 51.471 36.1509L45.5893 26.4085L33.4993 39.5877C33.3427 39.7584 33.1209 39.8555 32.8886 39.8551C32.6561 39.8547 32.4347 39.7569 32.2787 39.5857L20.1712 26.2998L14.1848 36.1529C14.0206 36.4232 13.7148 36.5757 13.3988 36.5451C13.0826 36.5144 12.8123 36.3061 12.7037 36.0093L1.69921 5.93952C1.56439 5.57114 1.71076 5.15942 2.04848 4.95704C2.38619 4.75466 2.82078 4.81824 3.08553 5.10876L19.9053 23.5656L32.1839 3.35598C32.3335 3.10984 32.6018 2.95956 32.8911 2.95996ZM21.0615 24.8344L32.8919 37.8163L44.7032 24.9408L32.8877 5.36944L21.0615 24.8344ZM19.015 25.0311L4.68776 9.30933L13.6644 33.8378L19.015 25.0311ZM46.7495 25.1437L52.0055 33.8497L61.2349 9.35326L46.7495 25.1437Z" fill="#33353D"/>
<path d="M77.1787 10.9338H78.9284L80.0302 14.0503L81.1321 10.9338H82.8952L81.2286 15.2174L82.4686 18.2278L85.237 10.9072H87.3032L83.3224 20.3232H81.7242L80.0302 16.3711L78.3362 20.3232H76.7381L72.7847 10.9072H74.8234L77.6059 18.2278L78.8184 15.2174L77.1787 10.9338Z" fill="#33353D"/>
<path d="M97.9066 10.9072V20.3232H96.0195V16.3048H91.5839V20.3232H89.6826V10.9072H91.5839V14.7134H96.0195V10.9072H97.9066Z" fill="#33353D"/>
<path d="M101.324 20.3232V10.9072H103.225V20.3232H101.324Z" fill="#33353D"/>
<path d="M113.958 12.5119H110.831V20.3232H108.943V12.5119H105.817V10.9072H113.958V12.5119Z" fill="#33353D"/>
<path d="M123.34 18.7185V20.3232H116.549V10.9072H123.216V12.5119H118.45V14.7797H122.568V16.265H118.45V18.7185H123.34Z" fill="#33353D"/>
<path d="M134.175 20.3232V14.0901L131.654 18.7318H130.621L128.1 14.0901V20.3232H126.199V10.9072H128.238L131.131 16.265L134.051 10.9072H136.076V20.3232H134.175Z" fill="#33353D"/>
<path d="M142.278 10.9072H143.958L147.678 20.3232H145.721L144.813 17.9758H141.396L140.501 20.3232H138.545L142.278 10.9072ZM144.468 16.6894L143.118 12.9894L141.713 16.6894H144.468Z" fill="#33353D"/>
<path d="M150.127 20.3232V10.9072H154.453C154.903 10.9072 155.316 11 155.693 11.1857C156.079 11.3626 156.409 11.6013 156.684 11.9019C156.96 12.1936 157.176 12.5296 157.332 12.9098C157.488 13.2811 157.566 13.6568 157.566 14.037C157.566 14.6471 157.405 15.2041 157.084 15.708C156.772 16.2032 156.345 16.5612 155.803 16.7822L158.034 20.3232H155.9L153.902 17.1668H152.029V20.3232H150.127ZM152.029 15.5622H154.411C154.586 15.5622 154.747 15.5224 154.894 15.4428C155.05 15.3632 155.183 15.2571 155.293 15.1245C155.403 14.983 155.491 14.8195 155.555 14.6338C155.619 14.4482 155.651 14.2492 155.651 14.037C155.651 13.816 155.615 13.6126 155.541 13.427C155.468 13.2413 155.366 13.0822 155.238 12.9496C155.119 12.8081 154.976 12.702 154.811 12.6313C154.655 12.5517 154.495 12.5119 154.329 12.5119H152.029V15.5622Z" fill="#33353D"/>
<path d="M160.666 20.3232V10.9205H162.567V15.3898L166.672 10.9072H168.766L165.019 15.0847L169 20.3232H166.865L163.821 16.2518L162.567 17.5116V20.3232H160.666Z" fill="#33353D"/>
<path d="M73.0991 32.4423V26.542H75.4095C75.6482 26.542 75.8655 26.5974 76.0633 26.7082C76.2659 26.8135 76.4382 26.9575 76.5804 27.1403C76.7273 27.3177 76.8413 27.5199 76.9224 27.747C77.0036 27.9686 77.0438 28.1957 77.0438 28.4285C77.0438 28.6334 77.0163 28.8329 76.9606 29.0268C76.9097 29.2151 76.8339 29.3869 76.7326 29.542C76.636 29.6971 76.5167 29.8301 76.3752 29.9409C76.2384 30.0517 76.0834 30.1321 75.9111 30.1819L77.2188 32.4423H76.4436L75.2123 30.3232H73.7832V32.4423H73.0991ZM73.7832 29.6583H75.4175C75.559 29.6583 75.6858 29.6251 75.7971 29.5587C75.9138 29.4921 76.013 29.4035 76.0942 29.2927C76.1747 29.1764 76.2384 29.0434 76.284 28.8938C76.3296 28.7443 76.3524 28.5891 76.3524 28.4285C76.3524 28.2623 76.3242 28.1071 76.2685 27.9631C76.2182 27.8135 76.1472 27.6833 76.0559 27.5725C75.9694 27.4561 75.8655 27.3675 75.7441 27.3065C75.6274 27.2401 75.5033 27.2069 75.3719 27.2069H73.7832V29.6583Z" fill="#33353D"/>
<path d="M82.5182 31.7775V32.4423H78.8545V26.542H82.4498V27.2069H79.5385V29.1182H82.0695V29.7415H79.5385V31.7775H82.5182Z" fill="#33353D"/>
<path d="M85.8587 26.542H86.4361L88.6405 32.4423H87.9109L87.2724 30.7137H85.0077L84.3766 32.4423H83.647L85.8587 26.542ZM87.1202 30.1321L86.1478 27.4063L85.1445 30.1321H87.1202Z" fill="#33353D"/>
<path d="M90.1206 32.4423V26.542H90.8047V31.7775H93.8151V32.4423H90.1206Z" fill="#33353D"/>
<path d="M101.436 31.7775V32.4423H97.772V26.542H101.367V27.2069H98.456V29.1182H100.988V29.7415H98.456V31.7775H101.436Z" fill="#33353D"/>
<path d="M106.304 27.7798C106.243 27.7022 106.162 27.6274 106.061 27.5554C105.959 27.4834 105.845 27.4197 105.719 27.3643C105.592 27.3033 105.453 27.2562 105.301 27.223C105.154 27.1842 104.999 27.1648 104.837 27.1648C104.417 27.1648 104.107 27.2507 103.91 27.4225C103.717 27.5942 103.621 27.8297 103.621 28.1288C103.621 28.2895 103.649 28.4225 103.704 28.5277C103.76 28.6329 103.847 28.7244 103.963 28.8019C104.085 28.8739 104.234 28.9377 104.411 28.9931C104.589 29.0485 104.799 29.1067 105.042 29.1676C105.321 29.2341 105.571 29.3117 105.795 29.4003C106.023 29.4834 106.215 29.5887 106.372 29.7161C106.534 29.8435 106.656 29.9986 106.737 30.1815C106.824 30.3643 106.866 30.5887 106.866 30.8546C106.866 31.1371 106.815 31.3837 106.714 31.5942C106.613 31.7992 106.473 31.9709 106.296 32.1094C106.124 32.2424 105.919 32.3421 105.681 32.4086C105.443 32.4695 105.184 32.5 104.905 32.5C104.49 32.5 104.095 32.4307 103.72 32.2923C103.35 32.1482 103.013 31.9405 102.708 31.669L103.036 31.0374C103.117 31.1316 103.221 31.2257 103.347 31.3199C103.479 31.4141 103.626 31.5 103.788 31.5775C103.955 31.6496 104.133 31.7105 104.32 31.7604C104.513 31.8047 104.713 31.8269 104.92 31.8269C105.306 31.8269 105.605 31.7521 105.818 31.6025C106.03 31.4529 106.137 31.2285 106.137 30.9293C106.137 30.7631 106.101 30.6247 106.03 30.5139C105.964 30.3975 105.866 30.2978 105.734 30.2147C105.602 30.1316 105.437 30.0595 105.24 29.9986C105.047 29.9321 104.827 29.8657 104.578 29.7992C104.305 29.7271 104.065 29.6496 103.857 29.5665C103.649 29.4834 103.474 29.3837 103.332 29.2673C103.195 29.151 103.091 29.0097 103.02 28.8435C102.949 28.6773 102.914 28.4779 102.914 28.2451C102.914 27.9626 102.962 27.7133 103.059 27.4972C103.154 27.2811 103.289 27.0983 103.461 26.9487C103.633 26.7992 103.839 26.6883 104.077 26.6163C104.315 26.5388 104.574 26.5 104.852 26.5C105.217 26.5 105.547 26.5609 105.84 26.6828C106.134 26.8047 106.395 26.9681 106.623 27.1731L106.304 27.7798Z" fill="#33353D"/>
<path d="M112.418 27.2069H110.556V32.4423H109.872V27.2069H108.009V26.542H112.418V27.2069Z" fill="#33353D"/>
<path d="M115.085 26.542H115.662L117.867 32.4423H117.137L116.499 30.7137H114.233L113.602 32.4423H112.873L115.085 26.542ZM116.346 30.1321L115.373 27.4063L114.37 30.1321H116.346Z" fill="#33353D"/>
<path d="M122.726 27.2069H120.864V32.4423H120.18V27.2069H118.318V26.542H122.726V27.2069Z" fill="#33353D"/>
<path d="M127.927 31.7775V32.4423H124.264V26.542H127.859V27.2069H124.948V29.1182H127.479V29.7415H124.948V31.7775H127.927Z" fill="#33353D"/>
<path d="M135.972 31.7775V32.4423H132.308V26.542H135.903V27.2069H132.992V29.1182H135.523V29.7415H132.992V31.7775H135.972Z" fill="#33353D"/>
<path d="M137.807 26.542L139.449 29.0019L141.091 26.542H141.843L139.814 29.5337L141.782 32.4423H141.03L139.449 30.0655L137.868 32.4423H137.108L139.077 29.5337L137.047 26.542H137.807Z" fill="#33353D"/>
<path d="M143.271 32.4423V26.542H145.52C145.759 26.542 145.976 26.5974 146.174 26.7082C146.376 26.8135 146.549 26.9575 146.691 27.1403C146.838 27.3177 146.952 27.5199 147.033 27.747C147.114 27.9686 147.154 28.1957 147.154 28.4285C147.154 28.6722 147.117 28.9077 147.04 29.1348C146.964 29.3619 146.855 29.5642 146.714 29.7415C146.577 29.9187 146.409 30.06 146.212 30.1653C146.019 30.2705 145.804 30.3232 145.565 30.3232H143.955V32.4423H143.271ZM143.955 29.6583H145.528C145.669 29.6583 145.796 29.6279 145.907 29.5669C146.024 29.5005 146.123 29.4118 146.204 29.301C146.285 29.1847 146.349 29.0517 146.394 28.9021C146.44 28.7525 146.463 28.5947 146.463 28.4285C146.463 28.2567 146.435 28.0961 146.379 27.9465C146.329 27.7969 146.258 27.6667 146.166 27.5559C146.08 27.4451 145.976 27.3592 145.854 27.2983C145.738 27.2373 145.614 27.2069 145.482 27.2069H143.955V29.6583Z" fill="#33353D"/>
<path d="M152.429 31.7775V32.4423H148.766V26.542H152.361V27.2069H149.45V29.1182H151.981V29.7415H149.45V31.7775H152.429Z" fill="#33353D"/>
<path d="M154.128 32.4423V26.542H156.439C156.677 26.542 156.895 26.5974 157.092 26.7082C157.295 26.8135 157.467 26.9575 157.609 27.1403C157.756 27.3177 157.87 27.5199 157.951 27.747C158.032 27.9686 158.073 28.1957 158.073 28.4285C158.073 28.6334 158.045 28.8329 157.989 29.0268C157.938 29.2151 157.863 29.3869 157.761 29.542C157.665 29.6971 157.546 29.8301 157.404 29.9409C157.267 30.0517 157.112 30.1321 156.941 30.1819L158.248 32.4423H157.472L156.241 30.3232H154.812V32.4423H154.128ZM154.812 29.6583H156.446C156.588 29.6583 156.715 29.6251 156.827 29.5587C156.943 29.4921 157.042 29.4035 157.123 29.2927C157.203 29.1764 157.267 29.0434 157.313 28.8938C157.358 28.7443 157.381 28.5891 157.381 28.4285C157.381 28.2623 157.353 28.1071 157.297 27.9631C157.247 27.8135 157.176 27.6833 157.085 27.5725C156.998 27.4561 156.895 27.3675 156.773 27.3065C156.656 27.2401 156.532 27.2069 156.401 27.2069H154.812V29.6583Z" fill="#33353D"/>
<path d="M163.731 27.2069H161.869V32.4423H161.185V27.2069H159.322V26.542H163.731V27.2069Z" fill="#33353D"/>
<path d="M168.437 27.7798C168.377 27.7022 168.296 27.6274 168.194 27.5554C168.093 27.4834 167.979 27.4197 167.852 27.3643C167.726 27.3033 167.586 27.2562 167.434 27.223C167.287 27.1842 167.133 27.1648 166.97 27.1648C166.55 27.1648 166.241 27.2507 166.043 27.4225C165.85 27.5942 165.754 27.8297 165.754 28.1288C165.754 28.2895 165.782 28.4225 165.838 28.5277C165.893 28.6329 165.98 28.7244 166.097 28.8019C166.218 28.8739 166.367 28.9377 166.545 28.9931C166.722 29.0485 166.932 29.1067 167.176 29.1676C167.454 29.2341 167.705 29.3117 167.928 29.4003C168.156 29.4834 168.349 29.5887 168.505 29.7161C168.668 29.8435 168.789 29.9986 168.87 30.1815C168.957 30.3643 169 30.5887 169 30.8546C169 31.1371 168.949 31.3837 168.848 31.5942C168.746 31.7992 168.607 31.9709 168.43 32.1094C168.257 32.2424 168.052 32.3421 167.814 32.4086C167.576 32.4695 167.317 32.5 167.039 32.5C166.623 32.5 166.228 32.4307 165.853 32.2923C165.483 32.1482 165.146 31.9405 164.842 31.669L165.169 31.0374C165.25 31.1316 165.354 31.2257 165.48 31.3199C165.612 31.4141 165.759 31.5 165.922 31.5775C166.089 31.6496 166.266 31.7105 166.453 31.7604C166.646 31.8047 166.846 31.8269 167.054 31.8269C167.439 31.8269 167.738 31.7521 167.951 31.6025C168.163 31.4529 168.27 31.2285 168.27 30.9293C168.27 30.7631 168.235 30.6247 168.163 30.5139C168.098 30.3975 167.999 30.2978 167.867 30.2147C167.736 30.1316 167.571 30.0595 167.373 29.9986C167.18 29.9321 166.96 29.8657 166.712 29.7992C166.439 29.7271 166.198 29.6496 165.99 29.5665C165.782 29.4834 165.607 29.3837 165.465 29.2673C165.329 29.151 165.225 29.0097 165.154 28.8435C165.083 28.6773 165.047 28.4779 165.047 28.2451C165.047 27.9626 165.095 27.7133 165.192 27.4972C165.288 27.2811 165.423 27.0983 165.594 26.9487C165.767 26.7992 165.972 26.6883 166.211 26.6163C166.449 26.5388 166.707 26.5 166.986 26.5C167.351 26.5 167.68 26.5609 167.974 26.6828C168.267 26.8047 168.528 26.9681 168.756 27.1731L168.437 27.7798Z" fill="#33353D"/>
</g>
<defs>
<clipPath id="clip0">
<rect width="169" height="40" fill="white" transform="translate(0 0.5)"/>
</clipPath>
</defs>
</svg>
