<svg width="40" height="40" viewBox="0 0 40 40" fill="none" xmlns="http://www.w3.org/2000/svg">
<circle cx="20" cy="20" r="20" fill="white"/>
<path d="M23.75 29H26.375C27.0712 29 27.7389 28.7234 28.2312 28.2312C28.7234 27.7389 29 27.0712 29 26.375V23.75M29 16.25V13.625C29 12.9288 28.7234 12.2611 28.2312 11.7688C27.7389 11.2766 27.0712 11 26.375 11H23.75M16.25 29H13.625C12.9288 29 12.2611 28.7234 11.7688 28.2312C11.2766 27.7389 11 27.0712 11 26.375V23.75M11 16.25V13.625C11 12.9288 11.2766 12.2611 11.7688 11.7688C12.2611 11.2766 12.9288 11 13.625 11H16.25" stroke="#2B2B31" stroke-linecap="square" stroke-linejoin="round"/>
</svg>
