<svg width="41" height="40" viewBox="0 0 41 40" fill="none" xmlns="http://www.w3.org/2000/svg">
<circle cx="20.875" cy="20" r="20" fill="#12A3EC"/>
<path fill-rule="evenodd" clip-rule="evenodd" d="M21.0312 8.5V12.6176H20.0312V8.5H21.0312ZM20.5308 23.5199C22.4496 23.5199 24.2899 22.7577 25.6468 21.4008C26.9463 20.1013 27.7005 18.3582 27.7619 16.5274H13.2997C13.3611 18.3582 14.1152 20.1013 15.4147 21.4008C16.7716 22.7577 18.6119 23.5199 20.5308 23.5199ZM12.2992 16.5274H11.2666V15.5274H29.7957V16.5274H28.7623C28.7404 17.2744 28.617 18.0088 28.4001 18.7121H31.1516V19.7121H28.0634V19.6131C27.6563 20.5344 27.0799 21.3819 26.3539 22.1079C25.8804 22.5814 25.3552 22.9913 24.7915 23.3321L26.9081 31.2314L25.9422 31.4902L23.8834 23.8066C22.8382 24.2725 21.6972 24.5199 20.5308 24.5199C19.4409 24.5199 18.3734 24.3039 17.3854 23.8956L16.3885 27.5927C17.0214 27.9439 17.4498 28.619 17.4498 29.3941C17.4498 30.5311 16.528 31.4529 15.391 31.4529C14.254 31.4529 13.3322 30.5311 13.3322 29.3941C13.3322 28.2571 14.254 27.3353 15.391 27.3353L15.4221 27.3355L16.47 23.4492C15.8303 23.0866 15.2367 22.637 14.7076 22.1079C13.2205 20.6208 12.3609 18.6235 12.2992 16.5274ZM15.391 30.4529C15.9757 30.4529 16.4498 29.9788 16.4498 29.3941C16.4498 28.8093 15.9757 28.3353 15.391 28.3353C14.8062 28.3353 14.3322 28.8093 14.3322 29.3941C14.3322 29.9788 14.8062 30.4529 15.391 30.4529ZM16.458 13.647V9.52939H15.458V13.647H16.458ZM25.6064 9.52939V13.647H24.6064V9.52939H25.6064Z" fill="white"/>
</svg>
