<svg width="41" height="40" viewBox="0 0 41 40" fill="none" xmlns="http://www.w3.org/2000/svg">
<circle cx="20.875" cy="20" r="20" fill="#12A3EC"/>
<path d="M11.875 27.5H27.625M26.125 11.75H29.125C29.3239 11.75 29.5147 11.829 29.6553 11.9697C29.796 12.1103 29.875 12.3011 29.875 12.5V14.0938C29.875 14.6656 29.6478 15.2141 29.2434 15.6184C28.8391 16.0228 28.2906 16.25 27.7188 16.25H26.125V11.75ZM13.375 11.75H26.125V20.75C26.125 21.2425 26.028 21.7301 25.8395 22.1851C25.6511 22.64 25.3749 23.0534 25.0267 23.4017C24.6784 23.7499 24.265 24.0261 23.8101 24.2145C23.3551 24.403 22.8675 24.5 22.375 24.5H17.125C16.1304 24.5 15.1766 24.1049 14.4733 23.4017C13.7701 22.6984 13.375 21.7446 13.375 20.75V11.75Z" stroke="white" stroke-linecap="round" stroke-linejoin="round"/>
</svg>
