<svg width="41" height="40" viewBox="0 0 41 40" fill="none" xmlns="http://www.w3.org/2000/svg">
<circle cx="20.875" cy="20" r="20" fill="#12A3EC"/>
<path d="M19.875 28.25H20.125V28V21V20.75H19.875H12.875H12.625V21V28V28.25H12.875H19.875ZM19.875 19.25H20.125V19V12V11.75H19.875H12.875H12.625V12V19V19.25H12.875H19.875ZM28.875 28.25H29.125V28V21V20.75H28.875H21.875H21.625V21V28V28.25H21.875H28.875ZM28.875 19.25H29.125V19V12V11.75H28.875H21.875H21.625V12V19V19.25H21.875H28.875ZM11.875 10.25H29.875C30.0739 10.25 30.2647 10.329 30.4053 10.4697C30.546 10.6103 30.625 10.8011 30.625 11V29C30.625 29.1989 30.546 29.3897 30.4053 29.5303C30.2647 29.671 30.0739 29.75 29.875 29.75H11.875C11.6761 29.75 11.4853 29.671 11.3447 29.5303C11.204 29.3897 11.125 29.1989 11.125 29V11C11.125 10.8011 11.204 10.6103 11.3447 10.4697C11.4853 10.329 11.6761 10.25 11.875 10.25Z" fill="white" stroke="#12A3EC" stroke-width="0.5"/>
</svg>
