<svg width="41" height="40" viewBox="0 0 41 40" fill="none" xmlns="http://www.w3.org/2000/svg">
<circle cx="20.875" cy="20" r="20" fill="#12A3EC"/>
<path fill-rule="evenodd" clip-rule="evenodd" d="M30.875 23.8125C30.875 23.9506 30.7631 24.0625 30.625 24.0625H28.1637C28.269 23.3857 28.5865 22.7548 29.0769 22.2644C29.5673 21.774 30.1982 21.4565 30.875 21.3512V23.8125ZM28.3698 21.5573C27.6915 22.2356 27.2662 23.1195 27.1545 24.0625H14.5955C14.5497 23.6761 14.451 23.297 14.3015 22.9361C14.0879 22.4205 13.7749 21.9519 13.3802 21.5573C12.9856 21.1626 12.517 20.8496 12.0014 20.636C11.6405 20.4865 11.2614 20.3878 10.875 20.342V16.783C11.2614 16.7372 11.6405 16.6385 12.0014 16.489C12.517 16.2754 12.9856 15.9624 13.3802 15.5677C13.7749 15.1731 14.0879 14.7045 14.3015 14.1889C14.451 13.828 14.5497 13.4489 14.5955 13.0625H27.1545C27.2662 14.0055 27.6915 14.8894 28.3698 15.5677C29.0481 16.246 29.932 16.6713 30.875 16.783V20.342C29.932 20.4537 29.0481 20.879 28.3698 21.5573ZM13.3776 23.3188C13.4767 23.5581 13.5466 23.8078 13.5863 24.0625H11.125C10.9869 24.0625 10.875 23.9506 10.875 23.8125V21.3512C11.1297 21.3909 11.3794 21.4608 11.6187 21.5599C12.013 21.7232 12.3713 21.9626 12.6731 22.2644C12.9749 22.5662 13.2143 22.9245 13.3776 23.3188ZM9.875 23.8125V20.8125V16.3125V13.3125C9.875 12.6221 10.4346 12.0625 11.125 12.0625H14.125H27.625H30.625C31.3154 12.0625 31.875 12.6221 31.875 13.3125V16.3125V20.8125V23.8125C31.875 24.5029 31.3154 25.0625 30.625 25.0625H27.625H14.125H11.125C10.4346 25.0625 9.875 24.5029 9.875 23.8125ZM11.6187 15.5651C11.3794 15.6642 11.1297 15.7341 10.875 15.7738V13.3125C10.875 13.1744 10.9869 13.0625 11.125 13.0625H13.5863C13.5466 13.3172 13.4767 13.5669 13.3776 13.8062C13.2143 14.2005 12.9749 14.5588 12.6731 14.8606C12.3713 15.1624 12.013 15.4018 11.6187 15.5651ZM30.625 13.0625H28.1637C28.2691 13.7393 28.5865 14.3702 29.0769 14.8606C29.5673 15.351 30.1982 15.6685 30.875 15.7738V13.3125C30.875 13.1744 30.7631 13.0625 30.625 13.0625ZM17.625 18.5625C17.625 16.7676 19.0801 15.3125 20.875 15.3125C22.6699 15.3125 24.125 16.7676 24.125 18.5625C24.125 20.3574 22.6699 21.8125 20.875 21.8125C19.0801 21.8125 17.625 20.3574 17.625 18.5625ZM20.875 14.3125C18.5278 14.3125 16.625 16.2153 16.625 18.5625C16.625 20.9097 18.5278 22.8125 20.875 22.8125C23.2222 22.8125 25.125 20.9097 25.125 18.5625C25.125 16.2153 23.2222 14.3125 20.875 14.3125ZM12.875 26.9375V27.9375H28.875V26.9375H12.875Z" fill="white"/>
</svg>
