<svg width="41" height="40" viewBox="0 0 41 40" fill="none" xmlns="http://www.w3.org/2000/svg">
<circle cx="20.875" cy="20" r="20" fill="#12A3EC"/>
<path d="M12.0813 17C11.8292 16.9997 11.5873 17.0991 11.4082 17.2765C11.229 17.4538 11.1273 17.6948 11.1251 17.9469C11.124 18.0342 11.1367 18.1212 11.1626 18.2047L13.586 26.75C13.6983 27.1492 13.9384 27.5005 14.2694 27.7503C14.6004 28 15.0041 28.1344 15.4188 28.1328H26.3313C26.7468 28.1332 27.1511 27.9985 27.4834 27.7491C27.8156 27.4997 28.0578 27.149 28.1735 26.75L30.5969 18.2047L30.6251 17.9469C30.6228 17.6948 30.5211 17.4538 30.342 17.2765C30.1628 17.0991 29.9209 16.9997 29.6688 17H12.0813Z" stroke="white" stroke-linejoin="round"/>
<path d="M16.375 17L20.875 11L25.375 17" stroke="white" stroke-linejoin="round"/>
<path d="M16.2656 25.5553L15.9587 24.7928L17.9488 22.5516C18.0542 22.44 18.1627 22.3129 18.2743 22.1703C18.3921 22.0215 18.5037 21.8696 18.6091 21.7146C18.7145 21.5596 18.7982 21.4077 18.8602 21.2589C18.9284 21.1039 18.9625 20.9582 18.9625 20.8218C18.9625 20.6235 18.9222 20.4561 18.8416 20.3197C18.7672 20.1771 18.6556 20.0686 18.5068 19.9942C18.3642 19.9198 18.1906 19.8826 17.986 19.8826C17.8062 19.8826 17.6295 19.9353 17.4559 20.0407C17.2823 20.1461 17.1242 20.2949 16.9816 20.4871C16.8391 20.6793 16.7275 20.9024 16.6469 21.1566L15.875 20.6731C15.9804 20.3135 16.1385 20.0066 16.3493 19.7524C16.5663 19.492 16.8236 19.2936 17.1211 19.1572C17.4249 19.0208 17.7535 18.9526 18.1069 18.9526C18.4727 18.9526 18.7982 19.0301 19.0833 19.1851C19.3685 19.3339 19.5917 19.5447 19.7529 19.8175C19.9141 20.0841 19.9947 20.3941 19.9947 20.7475C19.9947 20.89 19.9792 21.0357 19.9482 21.1845C19.9172 21.3333 19.8676 21.4883 19.7994 21.6495C19.7312 21.8045 19.6444 21.9688 19.539 22.1424C19.4336 22.3098 19.3065 22.4865 19.1577 22.6725C19.0151 22.8584 18.8509 23.0537 18.6649 23.2583L17.1862 24.8672L17.0002 24.5882H20.1993V25.5553H16.2656Z" fill="white"/>
<path d="M23.7733 25.5553V20.3104L24.0058 20.3662L21.8669 22.9793L21.8297 22.8677H25.875V23.7884H21.2066L20.7788 22.9514L23.9686 19.0456H24.7405V25.5553H23.7733Z" fill="white"/>
</svg>
