<svg width="41" height="40" viewBox="0 0 41 40" fill="none" xmlns="http://www.w3.org/2000/svg">
<circle cx="20.875" cy="20" r="20" fill="#12A3EC"/>
<g clip-path="url(#clip0)">
<path fill-rule="evenodd" clip-rule="evenodd" d="M28.9486 20C28.9486 24.4358 25.3527 28.0318 20.9169 28.0318C16.4811 28.0318 12.8851 24.4358 12.8851 20C12.8851 15.5642 16.4811 11.9683 20.9169 11.9683C25.3527 11.9683 28.9486 15.5642 28.9486 20ZM29.445 22.9813C28.2134 26.5045 24.8603 29.0318 20.9169 29.0318C16.9688 29.0318 13.6125 26.4986 12.3844 22.9689C12.1014 23.0165 11.8119 23.0236 11.5249 22.989C11.0334 22.9297 10.564 22.7502 10.1584 22.4662C9.75287 22.1823 9.42358 21.8027 9.19975 21.3611C8.97592 20.9195 8.86445 20.4295 8.87522 19.9345C8.886 19.4395 9.01867 18.9549 9.2615 18.5234C9.50433 18.092 9.84982 17.727 10.2674 17.461C10.6849 17.195 11.1616 17.036 11.6553 16.9982C11.8997 16.9795 12.1445 16.9908 12.3844 17.0311C13.6124 13.5015 16.9688 10.9683 20.9169 10.9683C24.8603 10.9683 28.2134 13.4955 29.445 17.0187C29.6781 16.986 29.9151 16.9806 30.1511 17.0032C30.6439 17.0504 31.1175 17.2185 31.5299 17.4925C31.9423 17.7665 32.2807 18.1379 32.5152 18.5739C32.7497 19.01 32.8731 19.4971 32.8744 19.9922C32.8757 20.4873 32.7548 20.9751 32.5226 21.4123C32.2903 21.8495 31.9538 22.2227 31.5429 22.4989C31.132 22.775 30.6593 22.9455 30.1667 22.9953C29.9255 23.0197 29.6832 23.0148 29.445 22.9813ZM29.7251 22.0058C29.8383 22.0136 29.9524 22.0119 30.0661 22.0004C30.3951 21.9671 30.7107 21.8533 30.9852 21.6689C31.2596 21.4844 31.4843 21.2352 31.6395 20.9432C31.7946 20.6512 31.8753 20.3254 31.8744 19.9948C31.8735 19.6642 31.7911 19.3388 31.6345 19.0476C31.4779 18.7564 31.2519 18.5084 30.9765 18.3254C30.7011 18.1424 30.3848 18.0302 30.0557 17.9986C29.9454 17.988 29.8349 17.9866 29.7251 17.9942C29.8714 18.6393 29.9486 19.3107 29.9486 20C29.9486 20.6894 29.8714 21.3607 29.7251 22.0058ZM11.8851 20C11.8851 20.6867 11.9618 21.3555 12.107 21.9983C11.9538 22.0153 11.7987 22.0147 11.6445 21.9962C11.3163 21.9566 11.0028 21.8367 10.732 21.6471C10.4611 21.4574 10.2412 21.2039 10.0917 20.909C9.94224 20.6141 9.86779 20.2868 9.87499 19.9563C9.88218 19.6257 9.97079 19.302 10.133 19.0139C10.2951 18.7257 10.5259 18.482 10.8047 18.3044C11.0836 18.1267 11.4019 18.0205 11.7316 17.9953C11.8571 17.9857 11.9827 17.9879 12.107 18.0017C11.9618 18.6445 11.8851 19.3133 11.8851 20ZM18.3625 18.087C18.3625 18.6393 17.9148 19.087 17.3625 19.087C16.8102 19.087 16.3625 18.6393 16.3625 18.087C16.3625 17.5347 16.8102 17.087 17.3625 17.087C17.9148 17.087 18.3625 17.5347 18.3625 18.087ZM19.3625 18.087C19.3625 19.1915 18.4671 20.087 17.3625 20.087C16.2579 20.087 15.3625 19.1915 15.3625 18.087C15.3625 16.9824 16.2579 16.087 17.3625 16.087C18.4671 16.087 19.3625 16.9824 19.3625 18.087ZM24.3859 19.087C24.9382 19.087 25.3859 18.6393 25.3859 18.087C25.3859 17.5347 24.9382 17.087 24.3859 17.087C23.8337 17.087 23.3859 17.5347 23.3859 18.087C23.3859 18.6393 23.8337 19.087 24.3859 19.087ZM24.3859 20.087C25.4905 20.087 26.3859 19.1915 26.3859 18.087C26.3859 16.9824 25.4905 16.087 24.3859 16.087C23.2814 16.087 22.3859 16.9824 22.3859 18.087C22.3859 19.1915 23.2814 20.087 24.3859 20.087ZM18.7863 24.2183C18.4642 23.8962 18.2225 23.5087 18.0742 23.087H20.9176L23.761 23.087C23.6126 23.5087 23.371 23.8962 23.0489 24.2183C22.4836 24.7835 21.717 25.1011 20.9176 25.1011C20.1182 25.1011 19.3515 24.7835 18.7863 24.2183ZM18.0792 24.9254C17.5669 24.4132 17.2075 23.7768 17.03 23.087C16.9466 22.763 16.9034 22.4272 16.9034 22.087H17.9034H20.9176L23.9317 22.087H24.9317C24.9317 22.4272 24.8885 22.763 24.8051 23.087C24.6277 23.7768 24.2682 24.4132 23.756 24.9254C23.0032 25.6782 21.9822 26.1011 20.9176 26.1011C19.853 26.1011 18.8319 25.6782 18.0792 24.9254Z" fill="white"/>
</g>
<defs>
<clipPath id="clip0">
<rect width="24" height="24" fill="white" transform="translate(8.875 8)"/>
</clipPath>
</defs>
</svg>
