<svg width="41" height="40" viewBox="0 0 41 40" fill="none" xmlns="http://www.w3.org/2000/svg">
<circle cx="20.875" cy="20" r="20" fill="#12A3EC"/>
<mask id="path-2-inside-1" fill="white">
<path fill-rule="evenodd" clip-rule="evenodd" d="M21.3743 13.454V9.33643H20.3743V13.454H21.3743ZM10.8131 17.0481C10.8164 17.0736 10.8216 17.0985 10.8286 17.1227L12.1023 21.9254C11.7499 22.1571 11.5594 22.6033 11.6919 23.048L12.1752 24.6704C12.2904 25.0569 12.6246 25.3326 13.0179 25.3782L14.3184 30.282C14.3275 30.3195 14.3409 30.3554 14.3579 30.3891C14.426 30.5244 14.5514 30.6195 14.6951 30.6518C14.734 30.6606 14.7743 30.6647 14.8152 30.6638H17.7996H17.8139H20.8726L20.8748 30.6638L20.877 30.6638H23.9203H23.9353H26.9342C26.973 30.6647 27.0113 30.661 27.0485 30.6531C27.1312 30.6357 27.2064 30.5979 27.2686 30.5452C27.3113 30.509 27.3481 30.4656 27.377 30.416C27.4016 30.374 27.4202 30.3281 27.4318 30.2795L28.7304 25.3825C29.149 25.3537 29.5084 25.065 29.6237 24.6565L30.0817 23.0342C30.2081 22.586 30.0094 22.1402 29.6502 21.9144L30.9204 17.1246C30.9295 17.0936 30.9357 17.0614 30.9386 17.0282C30.9424 16.9863 30.9409 16.9448 30.9344 16.9044C30.9195 16.811 30.8788 16.7262 30.8198 16.6576C30.7815 16.613 30.7352 16.5748 30.6821 16.5456C30.6276 16.5154 30.5667 16.4952 30.5021 16.4872C30.4777 16.4842 30.4533 16.483 30.4293 16.4835L25.5514 16.4835H25.5372L20.8748 16.4835L16.1976 16.4835H16.1828L11.3203 16.4835C11.2952 16.4829 11.2698 16.4843 11.2443 16.4876C11.186 16.4952 11.1308 16.5128 11.0806 16.5386C11.0137 16.5728 10.9568 16.6211 10.9126 16.6786C10.8338 16.7813 10.7954 16.9135 10.8131 17.0481ZM15.1891 29.6638L14.0543 25.3848H16.717L17.2422 29.6638H15.1891ZM13.0936 21.7625H16.2724L15.7472 17.4835H11.9588L13.0936 21.7625ZM18.2497 29.6638L17.7245 25.3848H20.3748V29.6638H18.2497ZM17.2799 21.7625H20.3748V17.4835H16.7547L17.2799 21.7625ZM21.3748 29.6638V25.3848H24.01L23.4848 29.6638H21.3748ZM21.3748 21.7625H24.4546L24.9798 17.4835H21.3748V21.7625ZM24.4923 29.6638L25.0175 25.3848H27.6952L26.5605 29.6638H24.4923ZM25.4621 21.7625H28.6559L29.7907 17.4835H25.9873L25.4621 21.7625ZM14.801 10.3658V14.4834H13.801V10.3658H14.801ZM27.9495 14.4834V10.3658H26.9495V14.4834H27.9495Z"/>
</mask>
<path fill-rule="evenodd" clip-rule="evenodd" d="M21.3743 13.454V9.33643H20.3743V13.454H21.3743ZM10.8131 17.0481C10.8164 17.0736 10.8216 17.0985 10.8286 17.1227L12.1023 21.9254C11.7499 22.1571 11.5594 22.6033 11.6919 23.048L12.1752 24.6704C12.2904 25.0569 12.6246 25.3326 13.0179 25.3782L14.3184 30.282C14.3275 30.3195 14.3409 30.3554 14.3579 30.3891C14.426 30.5244 14.5514 30.6195 14.6951 30.6518C14.734 30.6606 14.7743 30.6647 14.8152 30.6638H17.7996H17.8139H20.8726L20.8748 30.6638L20.877 30.6638H23.9203H23.9353H26.9342C26.973 30.6647 27.0113 30.661 27.0485 30.6531C27.1312 30.6357 27.2064 30.5979 27.2686 30.5452C27.3113 30.509 27.3481 30.4656 27.377 30.416C27.4016 30.374 27.4202 30.3281 27.4318 30.2795L28.7304 25.3825C29.149 25.3537 29.5084 25.065 29.6237 24.6565L30.0817 23.0342C30.2081 22.586 30.0094 22.1402 29.6502 21.9144L30.9204 17.1246C30.9295 17.0936 30.9357 17.0614 30.9386 17.0282C30.9424 16.9863 30.9409 16.9448 30.9344 16.9044C30.9195 16.811 30.8788 16.7262 30.8198 16.6576C30.7815 16.613 30.7352 16.5748 30.6821 16.5456C30.6276 16.5154 30.5667 16.4952 30.5021 16.4872C30.4777 16.4842 30.4533 16.483 30.4293 16.4835L25.5514 16.4835H25.5372L20.8748 16.4835L16.1976 16.4835H16.1828L11.3203 16.4835C11.2952 16.4829 11.2698 16.4843 11.2443 16.4876C11.186 16.4952 11.1308 16.5128 11.0806 16.5386C11.0137 16.5728 10.9568 16.6211 10.9126 16.6786C10.8338 16.7813 10.7954 16.9135 10.8131 17.0481ZM15.1891 29.6638L14.0543 25.3848H16.717L17.2422 29.6638H15.1891ZM13.0936 21.7625H16.2724L15.7472 17.4835H11.9588L13.0936 21.7625ZM18.2497 29.6638L17.7245 25.3848H20.3748V29.6638H18.2497ZM17.2799 21.7625H20.3748V17.4835H16.7547L17.2799 21.7625ZM21.3748 29.6638V25.3848H24.01L23.4848 29.6638H21.3748ZM21.3748 21.7625H24.4546L24.9798 17.4835H21.3748V21.7625ZM24.4923 29.6638L25.0175 25.3848H27.6952L26.5605 29.6638H24.4923ZM25.4621 21.7625H28.6559L29.7907 17.4835H25.9873L25.4621 21.7625ZM14.801 10.3658V14.4834H13.801V10.3658H14.801ZM27.9495 14.4834V10.3658H26.9495V14.4834H27.9495Z" fill="#12A3EC"/>
<path d="M21.3743 9.33643H22.3743V8.33643H21.3743V9.33643ZM21.3743 13.454V14.454H22.3743V13.454H21.3743ZM20.3743 9.33643V8.33643H19.3743V9.33643H20.3743ZM20.3743 13.454H19.3743V14.454H20.3743V13.454ZM10.8286 17.1227L11.7952 16.8663L11.7923 16.8556L11.7892 16.8449L10.8286 17.1227ZM10.8131 17.0481L11.8049 16.9201L11.8045 16.9176L10.8131 17.0481ZM12.1023 21.9254L12.6517 22.7609L13.2535 22.3652L13.0688 21.669L12.1023 21.9254ZM11.6919 23.048L12.6503 22.7625L11.6919 23.048ZM12.1752 24.6704L13.1336 24.3848V24.3848L12.1752 24.6704ZM13.0179 25.3782L13.9845 25.1218L13.8099 24.4633L13.1331 24.3848L13.0179 25.3782ZM14.3184 30.282L15.2903 30.0465L15.2878 30.036L15.285 30.0256L14.3184 30.282ZM14.3579 30.3891L15.2511 29.9395L15.2503 29.9379L14.3579 30.3891ZM14.6951 30.6518L14.4757 31.6275L14.4757 31.6275L14.6951 30.6518ZM14.8152 30.6638V29.6638H14.804L14.7927 29.6641L14.8152 30.6638ZM20.8726 30.6638L20.8743 29.6638H20.8726V30.6638ZM20.8748 30.6638L20.873 31.6638L20.8774 31.6638L20.8748 30.6638ZM20.877 30.6638V29.6638L20.8744 29.6638L20.877 30.6638ZM26.9342 30.6638L26.9569 29.6641L26.9455 29.6638H26.9342V30.6638ZM27.0485 30.6531L26.8429 29.6745L26.8411 29.6749L27.0485 30.6531ZM27.2686 30.5452L26.6224 29.7819L26.6215 29.7828L27.2686 30.5452ZM27.377 30.416L26.514 29.9109L26.5132 29.9123L27.377 30.416ZM27.4318 30.2795L26.4652 30.0231L26.4617 30.036L26.4587 30.049L27.4318 30.2795ZM28.7304 25.3825L28.6618 24.3848L27.9474 24.434L27.7638 25.1261L28.7304 25.3825ZM29.6237 24.6565L30.5861 24.9282V24.9282L29.6237 24.6565ZM30.0817 23.0342L29.1193 22.7625V22.7625L30.0817 23.0342ZM29.6502 21.9144L28.6836 21.6581L28.4949 22.3694L29.118 22.761L29.6502 21.9144ZM30.9204 17.1246L29.9609 16.843L29.9572 16.8555L29.9538 16.8682L30.9204 17.1246ZM30.9386 17.0282L29.9427 16.9376L29.9425 16.9399L30.9386 17.0282ZM30.9344 16.9044L29.9468 17.0614L29.9471 17.0631L30.9344 16.9044ZM30.8198 16.6576L30.0608 17.3087L30.0617 17.3097L30.8198 16.6576ZM30.6821 16.5456L30.1984 17.4208L30.1997 17.4216L30.6821 16.5456ZM30.5021 16.4872L30.3778 17.4795L30.3804 17.4798L30.5021 16.4872ZM30.4293 16.4835V17.4835H30.4403L30.4514 17.4833L30.4293 16.4835ZM25.5514 16.4835V17.4835V17.4835V16.4835ZM25.5372 16.4835V15.4835V16.4835ZM20.8748 16.4835V17.4835V16.4835ZM16.1976 16.4835V15.4835V16.4835ZM16.1828 16.4835V15.4835V16.4835ZM11.3203 16.4835L11.2981 17.4833L11.3092 17.4835H11.3203L11.3203 16.4835ZM11.2443 16.4876L11.3723 17.4794L11.3748 17.4791L11.2443 16.4876ZM11.0806 16.5386L11.5364 17.4287L11.538 17.4279L11.0806 16.5386ZM10.9126 16.6786L10.1196 16.0695L10.1196 16.0695L10.9126 16.6786ZM14.0543 25.3848V24.3848H12.7545L13.0877 25.6412L14.0543 25.3848ZM15.1891 29.6638L14.2225 29.9201L14.4197 30.6638H15.1891V29.6638ZM16.717 25.3848L17.7096 25.263L17.6018 24.3848H16.717V25.3848ZM17.2422 29.6638V30.6638H18.3725L18.2348 29.542L17.2422 29.6638ZM16.2724 21.7625V22.7625H17.4027L17.265 21.6407L16.2724 21.7625ZM13.0936 21.7625L12.127 22.0188L12.3243 22.7625H13.0936V21.7625ZM15.7472 17.4835L16.7398 17.3617L16.632 16.4835H15.7472V17.4835ZM11.9588 17.4835V16.4835H10.6591L10.9923 17.7398L11.9588 17.4835ZM17.7245 25.3848V24.3848H16.5943L16.732 25.5067L17.7245 25.3848ZM18.2497 29.6638L17.2572 29.7856L17.365 30.6638H18.2497V29.6638ZM20.3748 25.3848H21.3748V24.3848H20.3748V25.3848ZM20.3748 29.6638V30.6638H21.3748V29.6638H20.3748ZM20.3748 21.7625V22.7625H21.3748V21.7625H20.3748ZM17.2799 21.7625L16.2874 21.8843L16.3952 22.7625H17.2799V21.7625ZM20.3748 17.4835H21.3748V16.4835H20.3748V17.4835ZM16.7547 17.4835V16.4835H15.6245L15.7622 17.6053L16.7547 17.4835ZM21.3748 25.3848V24.3848H20.3748V25.3848H21.3748ZM21.3748 29.6638H20.3748V30.6638H21.3748V29.6638ZM24.01 25.3848L25.0025 25.5067L25.1402 24.3848H24.01V25.3848ZM23.4848 29.6638V30.6638H24.3696L24.4773 29.7856L23.4848 29.6638ZM24.4546 21.7625V22.7625H25.3394L25.4472 21.8843L24.4546 21.7625ZM21.3748 21.7625H20.3748V22.7625H21.3748V21.7625ZM24.9798 17.4835L25.9724 17.6053L26.1101 16.4835H24.9798V17.4835ZM21.3748 17.4835V16.4835H20.3748V17.4835H21.3748ZM25.0175 25.3848V24.3848H24.1327L24.0249 25.263L25.0175 25.3848ZM24.4923 29.6638L23.4998 29.542L23.3621 30.6638H24.4923V29.6638ZM27.6952 25.3848L28.6618 25.6412L28.995 24.3848H27.6952V25.3848ZM26.5605 29.6638V30.6638H27.3298L27.527 29.9201L26.5605 29.6638ZM28.6559 21.7625V22.7625H29.4253L29.6225 22.0188L28.6559 21.7625ZM25.4621 21.7625L24.4696 21.6407L24.3319 22.7625H25.4621V21.7625ZM29.7907 17.4835L30.7573 17.7398L31.0904 16.4835H29.7907V17.4835ZM25.9873 17.4835V16.4835H25.1025L24.9948 17.3617L25.9873 17.4835ZM14.801 14.4834V15.4834H15.801V14.4834H14.801ZM14.801 10.3658H15.801V9.36581H14.801V10.3658ZM13.801 14.4834H12.801V15.4834H13.801V14.4834ZM13.801 10.3658V9.36581H12.801V10.3658H13.801ZM27.9495 10.3658H28.9495V9.36581H27.9495V10.3658ZM27.9495 14.4834V15.4834H28.9495V14.4834H27.9495ZM26.9495 10.3658V9.36581H25.9495V10.3658H26.9495ZM26.9495 14.4834H25.9495V15.4834H26.9495V14.4834ZM20.3743 9.33643V13.454H22.3743V9.33643H20.3743ZM20.3743 10.3364H21.3743V8.33643H20.3743V10.3364ZM21.3743 13.454V9.33643H19.3743V13.454H21.3743ZM21.3743 12.454H20.3743V14.454H21.3743V12.454ZM11.7892 16.8449C11.7963 16.8694 11.8016 16.8946 11.8049 16.9201L9.82133 17.1761C9.8312 17.2527 9.84688 17.3276 9.86795 17.4005L11.7892 16.8449ZM13.0688 21.669L11.7952 16.8663L9.862 17.379L11.1357 22.1817L13.0688 21.669ZM12.6503 22.7625C12.6497 22.7604 12.6496 22.7595 12.6496 22.7597C12.6496 22.7598 12.6497 22.7604 12.6496 22.7613C12.6496 22.7622 12.6495 22.763 12.6494 22.7636C12.6492 22.7642 12.6491 22.7645 12.6491 22.7644C12.6492 22.7643 12.6496 22.7633 12.6506 22.7621C12.6515 22.761 12.6521 22.7607 12.6517 22.7609L11.5528 21.0898C10.8541 21.5493 10.4676 22.4407 10.7335 23.3335L12.6503 22.7625ZM13.1336 24.3848L12.6503 22.7625L10.7335 23.3335L11.2168 24.9559L13.1336 24.3848ZM13.1331 24.3848L13.1336 24.3848L11.2168 24.9559C11.4472 25.7292 12.1156 26.2802 12.9028 26.3715L13.1331 24.3848ZM15.285 30.0256L13.9845 25.1218L12.0514 25.6345L13.3518 30.5383L15.285 30.0256ZM15.2503 29.9379C15.2675 29.9719 15.2811 30.0084 15.2903 30.0465L13.3465 30.5174C13.374 30.6307 13.4142 30.7389 13.4655 30.8403L15.2503 29.9379ZM14.9145 29.6762C15.0564 29.7081 15.1818 29.8017 15.2511 29.9395L13.4647 30.8387C13.6702 31.2471 14.0463 31.5309 14.4757 31.6275L14.9145 29.6762ZM14.7927 29.6641C14.8343 29.6631 14.8752 29.6674 14.9145 29.6762L14.4757 31.6275C14.5928 31.6538 14.7144 31.6663 14.8378 31.6636L14.7927 29.6641ZM17.7996 29.6638H14.8152V31.6638H17.7996V29.6638ZM17.8139 29.6638H17.7996V31.6638H17.8139V29.6638ZM20.8726 29.6638H17.8139V31.6638H20.8726V29.6638ZM20.8765 29.6638L20.8743 29.6638L20.8708 31.6638L20.873 31.6638L20.8765 29.6638ZM20.8744 29.6638L20.8722 29.6638L20.8774 31.6638L20.8796 31.6638L20.8744 29.6638ZM23.9203 29.6638H20.877V31.6638H23.9203V29.6638ZM23.9353 29.6638H23.9203V31.6638H23.9353V29.6638ZM26.9342 29.6638H23.9353V31.6638H26.9342V29.6638ZM26.8411 29.6749C26.8785 29.6669 26.9174 29.6632 26.9569 29.6641L26.9114 31.6635C27.0286 31.6662 27.1442 31.6551 27.2559 31.6314L26.8411 29.6749ZM26.6215 29.7828C26.6829 29.7307 26.7585 29.6922 26.8429 29.6745L27.2541 31.6318C27.5039 31.5793 27.73 31.4652 27.9157 31.3076L26.6215 29.7828ZM26.5132 29.9123C26.5426 29.8617 26.58 29.8179 26.6224 29.7819L27.9147 31.3084C28.0426 31.2002 28.1536 31.0694 28.2409 30.9198L26.5132 29.9123ZM26.4587 30.049C26.4704 29.9995 26.4893 29.953 26.514 29.9109L28.2401 30.9211C28.3139 30.7951 28.3701 30.6568 28.4048 30.5099L26.4587 30.049ZM27.7638 25.1261L26.4652 30.0231L28.3983 30.5358L29.697 25.6388L27.7638 25.1261ZM28.6613 24.3848L28.6618 24.3848L28.7991 26.3801C29.6367 26.3225 30.3554 25.7453 30.5861 24.9282L28.6613 24.3848ZM29.1193 22.7625L28.6613 24.3848L30.5861 24.9282L31.044 23.3058L29.1193 22.7625ZM29.118 22.761C29.1175 22.7607 29.118 22.761 29.1189 22.762C29.1198 22.7632 29.1203 22.7641 29.1204 22.7644C29.1204 22.7644 29.12 22.7633 29.1199 22.7614C29.1198 22.7605 29.1199 22.7599 29.1199 22.7598C29.1199 22.7596 29.1198 22.7604 29.1193 22.7625L31.044 23.3058C31.298 22.4063 30.8951 21.5158 30.1823 21.0678L29.118 22.761ZM29.9538 16.8682L28.6836 21.6581L30.6168 22.1708L31.887 17.3809L29.9538 16.8682ZM29.9425 16.9399C29.9455 16.907 29.9516 16.8745 29.9609 16.843L31.88 17.4061C31.9074 17.3126 31.9259 17.2157 31.9347 17.1165L29.9425 16.9399ZM29.9471 17.0631C29.9405 17.0222 29.9389 16.98 29.9427 16.9376L31.9345 17.1188C31.946 16.9926 31.9413 16.8673 31.9217 16.7457L29.9471 17.0631ZM30.0617 17.3097C30.0034 17.2419 29.9619 17.1565 29.9468 17.0614L31.922 16.7474C31.8772 16.4655 31.7543 16.2105 31.578 16.0055L30.0617 17.3097ZM30.1997 17.4216C30.1457 17.3918 30.0989 17.3531 30.0608 17.3087L31.5789 16.0066C31.4642 15.8729 31.3246 15.7578 31.1645 15.6697L30.1997 17.4216ZM30.3804 17.4798C30.3152 17.4718 30.2534 17.4512 30.1984 17.4208L31.1659 15.6704C31.0017 15.5796 30.8183 15.5185 30.6239 15.4947L30.3804 17.4798ZM30.4514 17.4833C30.4269 17.4838 30.4023 17.4826 30.3778 17.4795L30.6264 15.495C30.5531 15.4858 30.4798 15.4821 30.4071 15.4837L30.4514 17.4833ZM25.5514 17.4835H30.4293V15.4835L25.5514 15.4835V17.4835ZM25.5372 17.4835H25.5514V15.4835H25.5372V17.4835ZM20.8748 17.4835L25.5372 17.4835V15.4835L20.8748 15.4835V17.4835ZM16.1976 17.4835L20.8748 17.4835V15.4835L16.1976 15.4835V17.4835ZM16.1828 17.4835H16.1976V15.4835H16.1828V17.4835ZM11.3203 17.4835L16.1828 17.4835V15.4835L11.3203 15.4835L11.3203 17.4835ZM11.3748 17.4791C11.3493 17.4825 11.3236 17.4838 11.2981 17.4833L11.3426 15.4838C11.2668 15.4821 11.1903 15.4861 11.1138 15.4962L11.3748 17.4791ZM11.538 17.4279C11.4872 17.454 11.4311 17.4718 11.3723 17.4794L11.1163 15.4959C10.9409 15.5185 10.7745 15.5715 10.6232 15.6493L11.538 17.4279ZM11.7057 17.2878C11.6619 17.3448 11.6045 17.3938 11.5364 17.4287L10.6248 15.6485C10.4229 15.7519 10.2518 15.8973 10.1196 16.0695L11.7057 17.2878ZM11.8045 16.9176C11.8226 17.055 11.7829 17.1872 11.7057 17.2878L10.1196 16.0695C9.88463 16.3753 9.76812 16.7719 9.82165 17.1786L11.8045 16.9176ZM13.0877 25.6412L14.2225 29.9201L16.1556 29.4075L15.0209 25.1285L13.0877 25.6412ZM16.717 24.3848H14.0543V26.3848H16.717V24.3848ZM18.2348 29.542L17.7096 25.263L15.7245 25.5067L16.2497 29.7856L18.2348 29.542ZM15.1891 30.6638H17.2422V28.6638H15.1891V30.6638ZM16.2724 20.7625H13.0936V22.7625H16.2724V20.7625ZM14.7547 17.6053L15.2799 21.8843L17.265 21.6407L16.7398 17.3617L14.7547 17.6053ZM11.9588 18.4835H15.7472V16.4835H11.9588V18.4835ZM14.0602 21.5062L12.9254 17.2272L10.9923 17.7398L12.127 22.0188L14.0602 21.5062ZM16.732 25.5067L17.2572 29.7856L19.2423 29.542L18.7171 25.263L16.732 25.5067ZM20.3748 24.3848H17.7245V26.3848H20.3748V24.3848ZM21.3748 29.6638V25.3848H19.3748V29.6638H21.3748ZM18.2497 30.6638H20.3748V28.6638H18.2497V30.6638ZM20.3748 20.7625H17.2799V22.7625H20.3748V20.7625ZM19.3748 17.4835V21.7625H21.3748V17.4835H19.3748ZM16.7547 18.4835H20.3748V16.4835H16.7547V18.4835ZM18.2725 21.6407L17.7473 17.3617L15.7622 17.6053L16.2874 21.8843L18.2725 21.6407ZM20.3748 25.3848V29.6638H22.3748V25.3848H20.3748ZM24.01 24.3848H21.3748V26.3848H24.01V24.3848ZM24.4773 29.7856L25.0025 25.5067L23.0174 25.263L22.4922 29.542L24.4773 29.7856ZM21.3748 30.6638H23.4848V28.6638H21.3748V30.6638ZM24.4546 20.7625H21.3748V22.7625H24.4546V20.7625ZM23.9873 17.3617L23.4621 21.6407L25.4472 21.8843L25.9724 17.6053L23.9873 17.3617ZM21.3748 18.4835H24.9798V16.4835H21.3748V18.4835ZM22.3748 21.7625V17.4835H20.3748V21.7625H22.3748ZM24.0249 25.263L23.4998 29.542L25.4849 29.7856L26.0101 25.5067L24.0249 25.263ZM27.6952 24.3848H25.0175V26.3848H27.6952V24.3848ZM27.527 29.9201L28.6618 25.6412L26.7286 25.1285L25.5939 29.4075L27.527 29.9201ZM24.4923 30.6638H26.5605V28.6638H24.4923V30.6638ZM28.6559 20.7625H25.4621V22.7625H28.6559V20.7625ZM28.8241 17.2272L27.6893 21.5062L29.6225 22.0188L30.7573 17.7398L28.8241 17.2272ZM25.9873 18.4835H29.7907V16.4835H25.9873V18.4835ZM26.4547 21.8843L26.9799 17.6053L24.9948 17.3617L24.4696 21.6407L26.4547 21.8843ZM15.801 14.4834V10.3658H13.801V14.4834H15.801ZM13.801 15.4834H14.801V13.4834H13.801V15.4834ZM12.801 10.3658V14.4834H14.801V10.3658H12.801ZM14.801 9.36581H13.801V11.3658H14.801V9.36581ZM26.9495 10.3658V14.4834H28.9495V10.3658H26.9495ZM26.9495 11.3658H27.9495V9.36581H26.9495V11.3658ZM27.9495 14.4834V10.3658H25.9495V14.4834H27.9495ZM27.9495 13.4834H26.9495V15.4834H27.9495V13.4834Z" fill="white" mask="url(#path-2-inside-1)"/>
</svg>
