<svg width="40" height="40" viewBox="0 0 40 40" fill="none" xmlns="http://www.w3.org/2000/svg">
<circle cx="20" cy="20" r="20" fill="#12A3EC"/>
<path fill-rule="evenodd" clip-rule="evenodd" d="M16.0033 13.4554C15.6964 13.4554 15.3924 13.5159 15.1088 13.6334C14.832 13.748 14.58 13.9147 14.3663 14.1244L14.3665 14.1247C14.0566 14.4346 13.6887 14.6804 13.2837 14.8482C12.8788 15.0159 12.4448 15.1022 12.0065 15.1022C11.5682 15.1022 11.1342 15.0159 10.7293 14.8482C10.3243 14.6804 9.95641 14.4346 9.64648 14.1247L10.3536 13.4176C10.5707 13.6346 10.8283 13.8068 11.112 13.9243C11.3956 14.0418 11.6995 14.1022 12.0065 14.1022C12.3135 14.1022 12.6174 14.0418 12.901 13.9243C13.1778 13.8097 13.4299 13.6429 13.6436 13.4332L13.6433 13.433C13.9533 13.123 14.3212 12.8772 14.7261 12.7095C15.131 12.5418 15.565 12.4554 16.0033 12.4554C16.4416 12.4554 16.8756 12.5418 17.2806 12.7095C17.6855 12.8772 18.0534 13.123 18.3634 13.433L18.3629 13.4334C18.5766 13.643 18.8286 13.8097 19.1053 13.9243C19.3889 14.0418 19.6928 14.1022 19.9998 14.1022C20.3068 14.1022 20.6108 14.0418 20.8944 13.9243C21.1711 13.8097 21.4232 13.6429 21.6369 13.4332L21.6366 13.433C21.9466 13.123 22.3145 12.8772 22.7194 12.7095C23.1244 12.5418 23.5584 12.4554 23.9967 12.4554C24.435 12.4554 24.869 12.5418 25.2739 12.7095C25.6788 12.8772 26.0468 13.123 26.3567 13.433L26.3562 13.4334C26.5699 13.643 26.8219 13.8097 27.0986 13.9243C27.3822 14.0418 27.6862 14.1022 27.9931 14.1022C28.3001 14.1022 28.6041 14.0418 28.8877 13.9243C29.1713 13.8068 29.429 13.6346 29.646 13.4176L30.3531 14.1247C30.0432 14.4346 29.6753 14.6804 29.2704 14.8482C28.8654 15.0159 28.4314 15.1022 27.9931 15.1022C27.5548 15.1022 27.1208 15.0159 26.7159 14.8482C26.311 14.6804 25.943 14.4346 25.6331 14.1247L25.6336 14.1242C25.4199 13.9146 25.1679 13.748 24.8912 13.6334C24.6076 13.5159 24.3036 13.4554 23.9967 13.4554C23.6897 13.4554 23.3857 13.5159 23.1021 13.6334C22.8254 13.748 22.5733 13.9147 22.3596 14.1244L22.3598 14.1247C22.0499 14.4346 21.682 14.6804 21.277 14.8482C20.8721 15.0159 20.4381 15.1022 19.9998 15.1022C19.5615 15.1022 19.1275 15.0159 18.7226 14.8482C18.3177 14.6804 17.9497 14.4346 17.6398 14.1247L17.6402 14.1242C17.4266 13.9146 17.1746 13.748 16.8979 13.6334C16.6143 13.5159 16.3103 13.4554 16.0033 13.4554ZM15.109 17.7808C15.3926 17.6633 15.6966 17.6029 16.0036 17.6029C16.3105 17.6029 16.6145 17.6633 16.8981 17.7808C17.1748 17.8954 17.4268 18.0621 17.6405 18.2717L17.64 18.2721C17.9499 18.582 18.3179 18.8279 18.7228 18.9956C19.1277 19.1633 19.5617 19.2497 20 19.2497C20.4383 19.2497 20.8723 19.1633 21.2773 18.9956C21.6822 18.8279 22.0501 18.582 22.3601 18.2721L22.3598 18.2719C22.5735 18.0622 22.8256 17.8954 23.1023 17.7808C23.3859 17.6633 23.6899 17.6029 23.9969 17.6029C24.3039 17.6029 24.6078 17.6633 24.8914 17.7808C25.1681 17.8954 25.4201 18.0621 25.6338 18.2717L25.6333 18.2721C25.9433 18.582 26.3112 18.8279 26.7161 18.9956C27.1211 19.1633 27.5551 19.2497 27.9934 19.2497C28.4317 19.2497 28.8657 19.1633 29.2706 18.9956C29.6755 18.8279 30.0434 18.582 30.3534 18.2721L29.6463 17.565C29.4292 17.7821 29.1715 17.9543 28.8879 18.0717C28.6043 18.1892 28.3003 18.2497 27.9934 18.2497C27.6864 18.2497 27.3824 18.1892 27.0988 18.0717C26.8221 17.9571 26.5701 17.7905 26.3565 17.5809L26.3569 17.5804C26.047 17.2705 25.679 17.0247 25.2741 16.8569C24.8692 16.6892 24.4352 16.6029 23.9969 16.6029C23.5586 16.6029 23.1246 16.6892 22.7197 16.8569C22.3147 17.0247 21.9468 17.2705 21.6369 17.5804L21.6371 17.5807C21.4234 17.7904 21.1713 17.9571 20.8946 18.0717C20.611 18.1892 20.307 18.2497 20 18.2497C19.6931 18.2497 19.3891 18.1892 19.1055 18.0717C18.8288 17.9571 18.5768 17.7905 18.3631 17.5809L18.3636 17.5804C18.0537 17.2705 17.6857 17.0247 17.2808 16.8569C16.8759 16.6892 16.4419 16.6029 16.0036 16.6029C15.5653 16.6029 15.1313 16.6892 14.7263 16.8569C14.3214 17.0247 13.9535 17.2705 13.6436 17.5804L13.6438 17.5807C13.4301 17.7904 13.178 17.9571 12.9013 18.0717C12.6177 18.1892 12.3137 18.2497 12.0067 18.2497C11.6998 18.2497 11.3958 18.1892 11.1122 18.0717C10.8286 17.9543 10.5709 17.7821 10.3538 17.565L9.64671 18.2721C9.95663 18.582 10.3246 18.8279 10.7295 18.9956C11.1344 19.1633 11.5684 19.2497 12.0067 19.2497C12.445 19.2497 12.879 19.1633 13.284 18.9956C13.6889 18.8279 14.0568 18.582 14.3667 18.2721L14.3665 18.2719C14.5802 18.0622 14.8323 17.8954 15.109 17.7808ZM15.1093 21.9283C15.3929 21.8108 15.6968 21.7503 16.0038 21.7503C16.3108 21.7503 16.6147 21.8108 16.8983 21.9283C17.175 22.0429 17.427 22.2095 17.6407 22.4191L17.6403 22.4196C17.9502 22.7295 18.3181 22.9753 18.723 23.1431C19.128 23.3108 19.562 23.3971 20.0003 23.3971C20.4386 23.3971 20.8726 23.3108 21.2775 23.1431C21.6824 22.9753 22.0504 22.7295 22.3603 22.4196L22.36 22.4193C22.5737 22.2096 22.8258 22.0429 23.1026 21.9283C23.3862 21.8108 23.6901 21.7503 23.9971 21.7503C24.3041 21.7503 24.6081 21.8108 24.8917 21.9283C25.1683 22.0429 25.4203 22.2095 25.634 22.4191L25.6336 22.4196C25.9435 22.7295 26.3114 22.9753 26.7164 23.1431C27.1213 23.3108 27.5553 23.3971 27.9936 23.3971C28.4319 23.3971 28.8659 23.3108 29.2708 23.1431C29.6757 22.9753 30.0437 22.7295 30.3536 22.4196L29.6465 21.7125C29.4294 21.9295 29.1717 22.1017 28.8881 22.2192C28.6045 22.3367 28.3006 22.3971 27.9936 22.3971C27.6866 22.3971 27.3826 22.3367 27.099 22.2192C26.8224 22.1046 26.5704 21.9379 26.3567 21.7283L26.3571 21.7279C26.0472 21.418 25.6793 21.1721 25.2743 21.0044C24.8694 20.8367 24.4354 20.7503 23.9971 20.7503C23.5588 20.7503 23.1248 20.8367 22.7199 21.0044C22.315 21.1721 21.947 21.418 21.6371 21.7279L21.6374 21.7281C21.4236 21.9378 21.1716 22.1046 20.8948 22.2192C20.6112 22.3367 20.3072 22.3971 20.0003 22.3971C19.6933 22.3971 19.3893 22.3367 19.1057 22.2192C18.8291 22.1046 18.577 21.9379 18.3634 21.7283L18.3638 21.7279C18.0539 21.418 17.686 21.1721 17.281 21.0044C16.8761 20.8367 16.4421 20.7503 16.0038 20.7503C15.5655 20.7503 15.1315 20.8367 14.7266 21.0044C14.3216 21.1721 13.9537 21.418 13.6438 21.7279L13.644 21.7281C13.4303 21.9378 13.1782 22.1046 12.9015 22.2192C12.6179 22.3367 12.3139 22.3971 12.007 22.3971C11.7 22.3971 11.396 22.3367 11.1124 22.2192C10.8288 22.1017 10.5711 21.9295 10.354 21.7125L9.64694 22.4196C9.95686 22.7295 10.3248 22.9753 10.7297 23.1431C11.1347 23.3108 11.5687 23.3971 12.007 23.3971C12.4452 23.3971 12.8792 23.3108 13.2842 23.1431C13.6891 22.9753 14.057 22.7295 14.367 22.4196L14.3667 22.4193C14.5804 22.2096 14.8325 22.0429 15.1093 21.9283ZM15.1093 26.0757C15.3929 25.9582 15.6969 25.8978 16.0038 25.8978C16.3108 25.8978 16.6148 25.9582 16.8984 26.0757C17.175 26.1903 17.4271 26.357 17.6407 26.5666L17.6403 26.567C17.9502 26.877 18.3181 27.1228 18.7231 27.2905C19.128 27.4583 19.562 27.5446 20.0003 27.5446C20.4386 27.5446 20.8726 27.4583 21.2775 27.2905C21.6825 27.1228 22.0504 26.877 22.3603 26.567L22.3601 26.5668C22.5738 26.3571 22.8259 26.1903 23.1026 26.0757C23.3862 25.9582 23.6902 25.8978 23.9972 25.8978C24.3041 25.8978 24.6081 25.9582 24.8917 26.0757C25.1684 26.1903 25.4204 26.357 25.6341 26.5666L25.6336 26.567C25.9435 26.877 26.3115 27.1228 26.7164 27.2905C27.1213 27.4583 27.5553 27.5446 27.9936 27.5446C28.4319 27.5446 28.8659 27.4583 29.2709 27.2905C29.6758 27.1228 30.0437 26.8769 30.3536 26.567L29.6465 25.8599C29.4295 26.077 29.1718 26.2492 28.8882 26.3666C28.6046 26.4841 28.3006 26.5446 27.9936 26.5446C27.6866 26.5446 27.3827 26.4841 27.0991 26.3666C26.8224 26.252 26.5704 26.0854 26.3567 25.8758L26.3572 25.8753C26.0472 25.5654 25.6793 25.3196 25.2744 25.1518C24.8694 24.9841 24.4354 24.8978 23.9972 24.8978C23.5589 24.8978 23.1249 24.9841 22.7199 25.1518C22.315 25.3196 21.9471 25.5654 21.6371 25.8753L21.6374 25.8756C21.4237 26.0853 21.1716 26.252 20.8949 26.3666C20.6112 26.4841 20.3073 26.5446 20.0003 26.5446C19.6933 26.5446 19.3894 26.4841 19.1058 26.3666C18.8291 26.252 18.5771 26.0854 18.3634 25.8758L18.3638 25.8753C18.0539 25.5654 17.686 25.3196 17.2811 25.1518C16.8761 24.9841 16.4421 24.8978 16.0038 24.8978C15.5655 24.8978 15.1315 24.9841 14.7266 25.1518C14.3217 25.3196 13.9537 25.5654 13.6438 25.8753L13.6441 25.8756C13.4304 26.0853 13.1783 26.252 12.9015 26.3666C12.6179 26.4841 12.314 26.5446 12.007 26.5446C11.7 26.5446 11.396 26.4841 11.1124 26.3666C10.8288 26.2492 10.5711 26.077 10.3541 25.8599L9.64698 26.567C9.9569 26.877 10.3248 27.1228 10.7298 27.2905C11.1347 27.4583 11.5687 27.5446 12.007 27.5446C12.4453 27.5446 12.8793 27.4583 13.2842 27.2905C13.6892 27.1228 14.0571 26.877 14.367 26.567L14.3667 26.5668C14.5805 26.3571 14.8325 26.1903 15.1093 26.0757Z" fill="white"/>
</svg>
