<svg width="25" height="18" viewBox="0 0 25 18" fill="none" xmlns="http://www.w3.org/2000/svg">
<g clip-path="url(#clip0_262:486)">
<path d="M-5.52393 0H30.5721V18.048H-5.52393V0Z" fill="#012169"/>
<path d="M-5.52393 0V2.0163L26.5359 18.048H30.5721V16.0317L-1.4878 0H-5.52393ZM30.5721 0V2.0163L-1.4878 18.048H-5.52393V16.0317L26.5359 0H30.5721Z" fill="white"/>
<path d="M9.51725 0V18.048H15.5309V0H9.51725ZM-5.52393 6.01717V12.0308H30.5721V6.01717H-5.52393Z" fill="white"/>
<path d="M-5.52393 7.2192V10.8288H30.5721V7.2192H-5.52393ZM10.7193 0V18.048H14.3289V0H10.7193ZM-5.52393 18.048L6.5069 12.0308H9.2L-2.83435 18.048H-5.52393ZM-5.52393 0L6.5069 6.01717H3.81732L-5.52393 1.34655V0ZM15.8517 6.01717L27.8825 0H30.5721L18.5412 6.01717H15.8517ZM30.5721 18.048L18.5412 12.0308H21.2308L30.5721 16.7014V18.048Z" fill="#C8102E"/>
</g>
<defs>
<clipPath id="clip0_262:486">
<rect width="24" height="18" fill="white" transform="translate(0.5)"/>
</clipPath>
</defs>
</svg>
