<svg width="25" height="24" viewBox="0 0 25 24" fill="none" xmlns="http://www.w3.org/2000/svg">
<circle cx="12.5" cy="12" r="10" fill="#A52662"/>
<path d="M11.4225 14.7794L10.8988 11.9395C11.4225 11.8053 11.8924 11.6576 12.3087 11.4965C12.7249 11.3219 13.0807 11.1406 13.3761 10.9527C13.6849 10.7513 13.94 10.5364 14.1414 10.3082C14.3428 10.0799 14.4905 9.83822 14.5845 9.58311C14.6919 9.31457 14.7457 9.0326 14.7457 8.73721C14.7457 8.34782 14.6382 7.99872 14.4234 7.6899C14.222 7.38108 13.94 7.13939 13.5775 6.96484C13.215 6.79029 12.8055 6.70302 12.3489 6.70302C11.8119 6.70302 11.2882 6.89099 10.778 7.26695C10.2812 7.62948 9.85152 8.14642 9.48899 8.81777L7.97845 7.54892C8.55582 6.66274 9.24059 5.97796 10.0328 5.49459C10.8384 4.99779 11.6776 4.74939 12.5503 4.74939C13.3962 4.74939 14.1549 4.92394 14.8262 5.27304C15.4976 5.62214 16.0279 6.0988 16.4173 6.70302C16.8201 7.30723 17.0215 7.98529 17.0215 8.73721C17.0215 9.1803 16.9275 9.61667 16.7396 10.0463C16.565 10.4626 16.3099 10.8587 15.9742 11.2346C15.6386 11.6106 15.2425 11.9463 14.7859 12.2417C14.3428 12.537 13.8528 12.7787 13.3157 12.9667L12.9733 14.7794H11.4225ZM10.7176 17.74C10.7176 17.2969 10.8451 16.9344 11.1002 16.6524C11.3553 16.3704 11.691 16.2295 12.1073 16.2295C12.5503 16.2295 12.8927 16.3637 13.1344 16.6323C13.3761 16.8874 13.4969 17.2566 13.4969 17.74C13.4969 18.1831 13.3694 18.5456 13.1143 18.8276C12.8592 19.1096 12.5235 19.2505 12.1073 19.2505C11.6642 19.2505 11.3218 19.123 11.0801 18.8679C10.8384 18.5993 10.7176 18.2234 10.7176 17.74Z" fill="white"/>
</svg>
