<svg width="25" height="24" viewBox="0 0 25 24" fill="none" xmlns="http://www.w3.org/2000/svg">
<path d="M20.5 2H22.5V8H20.5V2Z" fill="#A52662"/>
<path d="M22.5 2V4L16.5 4L16.5 2L22.5 2Z" fill="#A52662"/>
<path d="M4.5 22H2.5L2.5 16L4.5 16L4.5 22Z" fill="#A52662"/>
<path d="M2.5 22L2.5 20L8.5 20L8.5 22L2.5 22Z" fill="#A52662"/>
<path d="M2.5 4L2.5 2L8.5 2V4L2.5 4Z" fill="#A52662"/>
<path d="M2.5 2H4.5V8H2.5L2.5 2Z" fill="#A52662"/>
<path d="M22.5 20L22.5 22L16.5 22L16.5 20L22.5 20Z" fill="#A52662"/>
<path d="M22.5 22L20.5 22L20.5 16L22.5 16L22.5 22Z" fill="#A52662"/>
</svg>
