<svg width="25" height="24" viewBox="0 0 25 24" fill="none" xmlns="http://www.w3.org/2000/svg">
<path d="M12.5 15.75C14.1569 15.75 15.5 14.4069 15.5 12.75C15.5 11.0931 14.1569 9.75 12.5 9.75C10.8431 9.75 9.5 11.0931 9.5 12.75C9.5 14.4069 10.8431 15.75 12.5 15.75Z" fill="#A52662"/>
<path d="M21.875 6.75H17.9844C17.8438 6.75 17.6694 6.65906 17.5334 6.51562L16.2547 4.50937C15.7344 3.75 15.5 3.75 14.6562 3.75H10.3438C9.5 3.75 9.21875 3.75 8.74672 4.50984L7.46656 6.51562C7.3625 6.62906 7.21625 6.75 7.0625 6.75V6C7.0625 5.90054 7.02299 5.80516 6.95267 5.73484C6.88234 5.66451 6.78696 5.625 6.6875 5.625H4.8125C4.71304 5.625 4.61766 5.66451 4.54734 5.73484C4.47701 5.80516 4.4375 5.90054 4.4375 6V6.75H3.125C2.82663 6.75 2.54048 6.86853 2.3295 7.0795C2.11853 7.29048 2 7.57663 2 7.875V19.125C2 19.4234 2.11853 19.7095 2.3295 19.9205C2.54048 20.1315 2.82663 20.25 3.125 20.25H21.875C22.1734 20.25 22.4595 20.1315 22.6705 19.9205C22.8815 19.7095 23 19.4234 23 19.125V7.875C23 7.57663 22.8815 7.29048 22.6705 7.0795C22.4595 6.86853 22.1734 6.75 21.875 6.75ZM12.7114 17.2453C11.8044 17.2879 10.9057 17.0551 10.1334 16.5776C9.36117 16.1 8.75144 15.3999 8.38437 14.5694C8.01729 13.7389 7.91005 12.8168 8.07674 11.9242C8.24342 11.0316 8.67623 10.2103 9.31829 9.56829C9.96035 8.92623 10.7816 8.49342 11.6742 8.32674C12.5668 8.16005 13.4889 8.26729 14.3194 8.63437C15.1499 9.00144 15.85 9.61117 16.3276 10.3834C16.8051 11.1557 17.0379 12.0544 16.9953 12.9614C16.9416 14.0802 16.473 15.1389 15.681 15.931C14.8889 16.723 13.8302 17.1916 12.7114 17.2453Z" fill="#A52662"/>
</svg>
