<svg width="190" height="157" viewBox="0 0 190 157" fill="none" xmlns="http://www.w3.org/2000/svg">
    <path d="M6.7074 69.3068L94.009 138.042L177.301 69.3068C177.301 69.3068 157.314 24.8041 94.009 24.8041C30.704 24.8041 6.7074 69.3068 6.7074 69.3068Z" fill="url(#paint0_radial)"></path>
    <path d="M86.4357 141.643C80.7777 145.658 81.0607 151.528 81.1305 151.687H84.3803C84.3252 151.524 84.6081 145.654 90.6274 142.202" fill="white"></path>
    <path d="M86.4357 141.643C80.7777 145.658 81.0607 151.528 81.1305 151.687H84.3803C84.3252 151.524 84.6081 145.654 90.6274 142.202" stroke="#C8500A" stroke-width="0.617609" stroke-linecap="round" stroke-linejoin="round"></path>
    <path d="M102.269 141.643C107.927 145.658 107.644 151.528 107.575 151.687H104.325C104.38 151.524 104.097 145.654 98.0776 142.202" fill="white"></path>
    <path d="M102.269 141.643C107.927 145.658 107.644 151.528 107.575 151.687H104.325C104.38 151.524 104.097 145.654 98.0776 142.202" stroke="#C8500A" stroke-width="0.617609" stroke-linecap="round" stroke-linejoin="round"></path>
    <path d="M115.761 132.77C115.491 132.77 115.233 132.878 115.042 133.068C114.851 133.259 114.744 133.518 114.744 133.787V134.806C114.744 135.102 114.686 135.394 114.573 135.667C114.46 135.94 114.294 136.188 114.085 136.397C113.877 136.605 113.629 136.771 113.356 136.884C113.083 136.997 112.79 137.055 112.495 137.055L108.338 137.034C106.29 137.023 103.998 136.055 100.96 134.416C97.6171 132.616 94.3526 132.77 94.3526 132.77C94.3526 132.77 91.0882 132.616 87.7465 134.416C84.7087 136.052 82.4156 137.023 80.3675 137.034L76.2101 137.055C75.6136 137.055 75.0416 136.818 74.6198 136.397C74.1981 135.975 73.9611 135.403 73.9611 134.806V133.787C73.9611 133.518 73.854 133.259 73.6633 133.068C73.4727 132.878 73.2141 132.77 72.9444 132.77C72.6748 132.77 72.4162 132.878 72.2255 133.068C72.0349 133.259 71.9277 133.518 71.9277 133.787V137.934C71.9277 138.343 72.0083 138.748 72.1648 139.126C72.3214 139.504 72.5508 139.847 72.8401 140.136C73.4243 140.72 74.2166 141.049 75.0427 141.049H81.2556C81.2556 141.777 81.545 142.476 82.0603 142.992C82.5755 143.507 83.2743 143.797 84.0031 143.797H104.705C105.434 143.797 106.133 143.508 106.648 142.992C107.164 142.477 107.453 141.778 107.453 141.049H113.666C114.075 141.049 114.48 140.968 114.858 140.811C115.236 140.655 115.58 140.425 115.869 140.136C116.158 139.847 116.387 139.504 116.544 139.126C116.701 138.748 116.781 138.343 116.781 137.934V133.787C116.781 133.653 116.755 133.521 116.703 133.397C116.652 133.274 116.577 133.161 116.482 133.067C116.387 132.973 116.275 132.898 116.151 132.847C116.027 132.796 115.895 132.77 115.761 132.77Z" fill="white" stroke="#C8500A" stroke-width="0.617609" stroke-linecap="round" stroke-linejoin="round"></path>
    <path d="M78.3489 128.712C77.4375 128.712 75.8316 129.261 74.5516 129.767C74.4207 129.814 74.2796 129.826 74.1428 129.8C74.006 129.774 73.8786 129.713 73.7737 129.621C73.6381 129.512 73.4795 129.435 73.3098 129.395C73.2251 129.376 73.1387 129.366 73.0522 129.365C73.0522 130.102 73.0523 131.337 73.0522 131.815C73.1375 131.815 73.2225 131.806 73.3058 131.788C74.0628 131.617 74.8382 131.543 75.5695 131.798C76.6021 132.165 77.669 132.469 78.3489 132.469C80.0307 132.469 81.394 131.626 81.394 130.588C81.394 129.549 80.0307 128.712 78.3489 128.712Z" fill="#0A0A28"></path>
    <path d="M120.964 128.712C120.053 128.712 118.447 129.261 117.167 129.767C117.036 129.814 116.895 129.826 116.758 129.8C116.621 129.774 116.494 129.713 116.389 129.621C116.253 129.512 116.094 129.435 115.925 129.395C115.84 129.376 115.754 129.366 115.667 129.365C115.667 130.102 115.667 131.337 115.667 131.815C115.752 131.815 115.838 131.806 115.921 131.788C116.678 131.617 117.453 131.543 118.184 131.798C119.217 132.165 120.284 132.469 120.964 132.469C122.646 132.469 124.009 131.626 124.009 130.588C124.009 129.549 122.646 128.712 120.964 128.712Z" fill="#0A0A28"></path>
    <path d="M73.0523 129.365C72.9656 129.365 72.8789 129.374 72.7938 129.393C72.0368 129.564 71.2626 129.638 70.5301 129.384C69.5024 129.019 68.4355 128.712 67.7556 128.712C66.0738 128.712 64.7092 129.554 64.7092 130.593C64.7092 131.631 66.0738 132.474 67.7556 132.474C68.6768 132.474 70.3096 131.912 71.6019 131.402C71.7169 131.358 71.8418 131.347 71.9628 131.37C72.0838 131.392 72.1963 131.447 72.2879 131.53C72.5001 131.714 72.7714 131.815 73.0523 131.815C73.0523 130.565 73.047 131.337 73.0523 129.365Z" fill="#0A0A28"></path>
    <path d="M115.667 129.365C115.581 129.365 115.494 129.374 115.409 129.393C114.652 129.564 113.878 129.638 113.145 129.384C112.117 129.019 111.05 128.712 110.371 128.712C108.689 128.712 107.324 129.554 107.324 130.593C107.324 131.631 108.689 132.474 110.371 132.474C111.292 132.474 112.925 131.912 114.217 131.402C114.332 131.358 114.457 131.347 114.578 131.37C114.699 131.392 114.811 131.447 114.903 131.53C115.115 131.714 115.386 131.815 115.667 131.815C115.667 130.565 115.662 131.337 115.667 129.365Z" fill="#0A0A28"></path>
    <path d="M96.6802 139.623C97.6564 139.623 98.4478 138.831 98.4478 137.855C98.4478 136.879 97.6564 136.088 96.6802 136.088C95.704 136.088 94.9126 136.879 94.9126 137.855C94.9126 138.831 95.704 139.623 96.6802 139.623Z" fill="#0A0A28"></path>
    <path d="M91.4961 139.623C92.4723 139.623 93.2637 138.831 93.2637 137.855C93.2637 136.879 92.4723 136.088 91.4961 136.088C90.5199 136.088 89.7285 136.879 89.7285 137.855C89.7285 138.831 90.5199 139.623 91.4961 139.623Z" fill="#0A0A28"></path>
    <circle cx="73.047" cy="130.565" r="1.23522" fill="#0A0A28"></circle>
    <circle cx="115.662" cy="130.565" r="1.23522" fill="#0A0A28"></circle>
    <defs>
        <radialGradient id="paint0_radial" cx="0" cy="0" r="1" gradientUnits="userSpaceOnUse" gradientTransform="translate(95 134.5) rotate(-90) scale(87 162.11)">
            <stop stop-color="#0094FF" stop-opacity="0.8"></stop>
            <stop offset="1" stop-color="#01A3FF" stop-opacity="0"></stop>
        </radialGradient>
    </defs>
</svg>
