<svg viewBox="0 0 172 98" fill="none" xmlns="http://www.w3.org/2000/svg">
<path d="M114.66 38.6517H114.523C112.643 38.6413 110.827 39.3319 109.429 40.5885C108.297 37.4564 105.421 35.2049 102.052 35.2049C99.9877 35.2194 98.0156 36.067 96.5852 37.557C95.2699 34.8942 92.6312 33.0879 89.5973 33.0879H89.4508C87.8248 33.0629 86.2383 33.5918 84.9519 34.5867V15.6034C84.9519 11.016 81.3803 7.28418 77.036 7.28418C72.6965 7.28418 69.1434 11.0135 69.141 15.5978L69.1048 53.2617L66.9732 50.673C65.1041 48.3458 62.3528 46.9009 59.3761 46.6828C56.4605 46.4832 53.5924 47.4974 51.4513 49.4873L49.5966 51.0239C48.9986 51.5198 48.8279 52.365 49.1861 53.054L67.2179 87.7147C70.515 94.0489 76.7881 98.0004 83.5891 98.0004H103.91V97.9827C114.214 97.9827 122.568 89.042 122.578 78.064C122.582 73.1522 122.564 69.4912 122.567 66.5242C122.577 58.5857 122.569 55.6564 122.549 46.9106C122.539 42.3336 118.993 38.6517 114.66 38.6517ZM119.246 66.5129C119.242 69.4808 119.237 73.1562 119.233 78.068C119.224 87.2309 112.307 94.7025 103.814 94.7025H83.59C78.0229 94.7025 72.8703 91.4303 70.144 86.1917L52.7255 52.7208L53.5852 52.0036C53.6069 51.9858 53.6279 51.9649 53.6488 51.9464C55.1275 50.5546 57.1173 49.8398 59.1434 49.9726C61.2146 50.1312 63.1255 51.1439 64.4207 52.7675L69.467 58.9077C69.9081 59.4462 70.6406 59.6482 71.2959 59.414C71.9511 59.1797 72.389 58.5583 72.389 57.8628L72.4188 15.5994C72.4204 12.8319 74.5133 10.5805 77.0376 10.5805C79.562 10.5805 81.6548 12.8344 81.6548 15.6034V41.0859C81.6548 41.1745 81.6508 41.2638 81.6508 41.354C81.6508 41.3926 81.6548 41.4321 81.6548 41.4699V52.365C81.6548 53.2754 82.393 54.0135 83.3034 54.0135C84.2138 54.0135 84.9519 53.2754 84.9519 52.365V41.1415C84.9519 38.4714 86.9917 36.385 89.4508 36.385H89.5973C92.1233 36.385 94.225 38.5865 94.225 41.3556V51.325C94.225 52.2354 94.9632 52.9735 95.8736 52.9735C96.784 52.9735 97.5221 52.2354 97.5221 51.325V43.5032C97.5221 40.7334 99.5233 38.4803 102.063 38.4803C104.588 38.4803 106.589 40.7325 106.589 43.5032V50.8822C106.589 51.7927 107.327 52.5308 108.238 52.5308C109.148 52.5308 109.886 51.7927 109.886 50.8822V46.8864C109.886 44.1166 111.997 41.9488 114.523 41.9488H114.66C117.18 41.9488 119.233 44.1536 119.24 46.9146C119.26 55.654 119.256 58.58 119.246 66.5129Z" fill="white"/>
<path d="M63.9044 16.3149C64.8148 16.3149 65.553 15.5767 65.553 14.6663C65.5795 8.37557 70.687 3.29066 76.9769 3.29066C83.2676 3.29066 88.3743 8.37557 88.4009 14.6663C88.4009 15.5767 89.139 16.3149 90.0494 16.3149C90.9598 16.3149 91.698 15.5767 91.698 14.6663C91.6674 6.55718 85.086 0 76.9769 0C68.8686 0 62.2864 6.55718 62.2559 14.6663C62.2559 15.5767 62.994 16.3149 63.9044 16.3149Z" fill="white"/>
<path d="M28 83L3 57.9476L28 33" stroke="white" stroke-width="5" stroke-linecap="round" stroke-linejoin="round"/>
<path d="M144 33L169 58.0524L144 83" stroke="white" stroke-width="5" stroke-linecap="round" stroke-linejoin="round"/>
</svg>
