<svg width="108" height="32" viewBox="0 0 108 32" fill="none" xmlns="http://www.w3.org/2000/svg">
<path fill-rule="evenodd" clip-rule="evenodd" d="M17.25 0C7.54998 0 0.0324707 6.60288 0.0324707 15.5206C0.0324707 20.1853 2.09022 24.216 5.44024 27.0008C5.72088 27.2358 5.89056 27.5609 5.90442 27.9118L5.998 30.7577C6.02916 31.6656 7.03725 32.2548 7.9311 31.8909L11.3469 30.4906C11.6359 30.3716 11.96 30.3489 12.2649 30.4262C13.8342 30.8286 15.5075 31.041 17.25 31.041C26.95 31.041 34.4675 24.4382 34.4675 15.5205C34.4675 6.60288 26.95 0 17.25 0Z" fill="url(#paint0_linear)"/>
<path fill-rule="evenodd" clip-rule="evenodd" d="M6.91261 20.0596L11.9704 12.6036C12.7741 11.4188 14.4993 11.1226 15.7049 11.9629L19.7269 14.767C19.9066 14.8919 20.125 14.9591 20.3494 14.9585C20.5737 14.958 20.7917 14.8896 20.9706 14.7638L26.4027 10.9327C27.1267 10.4209 28.076 11.229 27.5874 11.9436L22.533 19.3964C21.7293 20.5811 20.0041 20.8774 18.7986 20.0371L14.7765 17.233C14.5969 17.1081 14.3784 17.0409 14.1541 17.0414C13.9298 17.042 13.7118 17.1104 13.5328 17.2362L8.09735 21.0705C7.37335 21.5824 6.42406 20.7743 6.91261 20.0596V20.0596Z" fill="white"/>
<path d="M40.1061 21V11.2H41.6181V21H40.1061ZM40.7781 16.828V15.372H45.8321V16.828H40.7781ZM40.7781 12.656V11.2H46.4621V12.656H40.7781ZM51.0669 21.14C50.4602 21.14 49.9049 20.972 49.4009 20.636C48.9062 20.3 48.5096 19.8427 48.2109 19.264C47.9122 18.6853 47.7629 18.032 47.7629 17.304C47.7629 16.5667 47.9122 15.9133 48.2109 15.344C48.5189 14.7653 48.9296 14.3127 49.4429 13.986C49.9656 13.6593 50.5489 13.496 51.1929 13.496C51.5756 13.496 51.9256 13.552 52.2429 13.664C52.5602 13.776 52.8356 13.9347 53.0689 14.14C53.3116 14.336 53.5076 14.5647 53.6569 14.826C53.8156 15.0873 53.9136 15.3673 53.9509 15.666L53.6289 15.554V13.65H55.0849V21H53.6289V19.25L53.9649 19.152C53.9089 19.404 53.7922 19.6513 53.6149 19.894C53.4469 20.1273 53.2276 20.3373 52.9569 20.524C52.6956 20.7107 52.4016 20.86 52.0749 20.972C51.7576 21.084 51.4216 21.14 51.0669 21.14ZM51.4449 19.81C51.8836 19.81 52.2709 19.7027 52.6069 19.488C52.9429 19.2733 53.2042 18.9793 53.3909 18.606C53.5869 18.2233 53.6849 17.7893 53.6849 17.304C53.6849 16.828 53.5869 16.4033 53.3909 16.03C53.2042 15.6567 52.9429 15.3627 52.6069 15.148C52.2709 14.9333 51.8836 14.826 51.4449 14.826C51.0156 14.826 50.6329 14.9333 50.2969 15.148C49.9702 15.3627 49.7089 15.6567 49.5129 16.03C49.3262 16.4033 49.2329 16.828 49.2329 17.304C49.2329 17.7893 49.3262 18.2233 49.5129 18.606C49.7089 18.9793 49.9702 19.2733 50.2969 19.488C50.6329 19.7027 51.0156 19.81 51.4449 19.81ZM60.5003 21.14C59.8189 21.14 59.2076 20.972 58.6663 20.636C58.1343 20.3 57.7096 19.8427 57.3923 19.264C57.0843 18.6853 56.9303 18.0367 56.9303 17.318C56.9303 16.5993 57.0843 15.9507 57.3923 15.372C57.7096 14.7933 58.1343 14.336 58.6663 14C59.2076 13.664 59.8189 13.496 60.5003 13.496C61.1536 13.496 61.7463 13.6313 62.2783 13.902C62.8196 14.1633 63.2303 14.5227 63.5103 14.98L62.7123 15.96C62.5629 15.7453 62.3716 15.5493 62.1383 15.372C61.9049 15.1947 61.6576 15.0547 61.3963 14.952C61.1349 14.8493 60.8829 14.798 60.6403 14.798C60.1923 14.798 59.7909 14.91 59.4363 15.134C59.0909 15.3487 58.8156 15.6473 58.6103 16.03C58.4049 16.4127 58.3023 16.842 58.3023 17.318C58.3023 17.794 58.4096 18.2233 58.6243 18.606C58.8389 18.9793 59.1236 19.278 59.4783 19.502C59.8329 19.726 60.2249 19.838 60.6543 19.838C60.9063 19.838 61.1489 19.796 61.3823 19.712C61.6249 19.628 61.8583 19.502 62.0823 19.334C62.3063 19.166 62.5163 18.9607 62.7123 18.718L63.5103 19.698C63.2116 20.118 62.7823 20.4633 62.2223 20.734C61.6716 21.0047 61.0976 21.14 60.5003 21.14ZM68.5805 21.14C67.8245 21.14 67.1525 20.9813 66.5645 20.664C65.9858 20.3373 65.5285 19.894 65.1925 19.334C64.8658 18.774 64.7025 18.13 64.7025 17.402C64.7025 16.8233 64.7958 16.296 64.9825 15.82C65.1691 15.344 65.4258 14.9333 65.7525 14.588C66.0885 14.2333 66.4851 13.9627 66.9425 13.776C67.4091 13.58 67.9131 13.482 68.4545 13.482C68.9305 13.482 69.3738 13.5753 69.7845 13.762C70.1951 13.9393 70.5498 14.1867 70.8485 14.504C71.1565 14.8213 71.3898 15.1993 71.5485 15.638C71.7165 16.0673 71.7958 16.5387 71.7865 17.052L71.7725 17.668H65.7665L65.4445 16.52H70.5265L70.3165 16.758V16.422C70.2885 16.114 70.1858 15.8387 70.0085 15.596C69.8311 15.3533 69.6071 15.162 69.3365 15.022C69.0658 14.882 68.7718 14.812 68.4545 14.812C67.9505 14.812 67.5258 14.91 67.1805 15.106C66.8351 15.2927 66.5738 15.5727 66.3965 15.946C66.2191 16.31 66.1305 16.7627 66.1305 17.304C66.1305 17.8173 66.2378 18.2653 66.4525 18.648C66.6671 19.0213 66.9705 19.3107 67.3625 19.516C67.7545 19.7213 68.2071 19.824 68.7205 19.824C69.0845 19.824 69.4205 19.7633 69.7285 19.642C70.0458 19.5207 70.3865 19.3013 70.7505 18.984L71.4785 20.006C71.2545 20.23 70.9791 20.426 70.6525 20.594C70.3351 20.762 69.9945 20.8973 69.6305 21C69.2758 21.0933 68.9258 21.14 68.5805 21.14ZM77.4976 21.14C77.1802 21.14 76.8629 21.0887 76.5456 20.986C76.2376 20.8833 75.9529 20.748 75.6916 20.58C75.4396 20.4027 75.2249 20.2113 75.0476 20.006C74.8796 19.7913 74.7676 19.5767 74.7116 19.362L75.0756 19.166V20.958H73.6336V10.64H75.0756V15.33L74.8516 15.204C74.8982 14.9893 75.0009 14.784 75.1596 14.588C75.3182 14.3827 75.5189 14.2007 75.7616 14.042C76.0136 13.874 76.2842 13.7433 76.5736 13.65C76.8629 13.5473 77.1569 13.496 77.4556 13.496C78.1182 13.496 78.7062 13.6593 79.2196 13.986C79.7329 14.3127 80.1389 14.7653 80.4376 15.344C80.7362 15.9133 80.8856 16.5667 80.8856 17.304C80.8856 18.0413 80.7362 18.6993 80.4376 19.278C80.1482 19.8567 79.7469 20.314 79.2336 20.65C78.7202 20.9767 78.1416 21.14 77.4976 21.14ZM77.2596 19.824C77.6889 19.824 78.0716 19.7167 78.4076 19.502C78.7436 19.278 79.0096 18.9793 79.2056 18.606C79.4016 18.2233 79.4996 17.7893 79.4996 17.304C79.4996 16.828 79.4016 16.4033 79.2056 16.03C79.0189 15.6473 78.7576 15.3487 78.4216 15.134C78.0856 14.9193 77.6982 14.812 77.2596 14.812C76.8209 14.812 76.4336 14.9193 76.0976 15.134C75.7616 15.3487 75.4956 15.6473 75.2996 16.03C75.1036 16.4033 75.0056 16.828 75.0056 17.304C75.0056 17.7893 75.1036 18.2233 75.2996 18.606C75.4956 18.9793 75.7616 19.278 76.0976 19.502C76.4336 19.7167 76.8209 19.824 77.2596 19.824ZM86.0359 21.14C85.3173 21.14 84.6733 20.9767 84.1039 20.65C83.5439 20.314 83.1006 19.8613 82.7739 19.292C82.4473 18.7133 82.2839 18.0553 82.2839 17.318C82.2839 16.5807 82.4473 15.9273 82.7739 15.358C83.1006 14.7793 83.5439 14.3267 84.1039 14C84.6733 13.664 85.3173 13.496 86.0359 13.496C86.7453 13.496 87.3799 13.664 87.9399 14C88.5093 14.3267 88.9573 14.7793 89.2839 15.358C89.6106 15.9273 89.7739 16.5807 89.7739 17.318C89.7739 18.0553 89.6106 18.7133 89.2839 19.292C88.9573 19.8613 88.5093 20.314 87.9399 20.65C87.3799 20.9767 86.7453 21.14 86.0359 21.14ZM86.0359 19.824C86.4746 19.824 86.8666 19.7167 87.2119 19.502C87.5573 19.278 87.8279 18.9793 88.0239 18.606C88.2199 18.2233 88.3133 17.794 88.3039 17.318C88.3133 16.8327 88.2199 16.4033 88.0239 16.03C87.8279 15.6473 87.5573 15.3487 87.2119 15.134C86.8666 14.9193 86.4746 14.812 86.0359 14.812C85.5973 14.812 85.2006 14.924 84.8459 15.148C84.5006 15.3627 84.2299 15.6613 84.0339 16.044C83.8379 16.4173 83.7446 16.842 83.7539 17.318C83.7446 17.794 83.8379 18.2233 84.0339 18.606C84.2299 18.9793 84.5006 19.278 84.8459 19.502C85.2006 19.7167 85.5973 19.824 86.0359 19.824ZM94.9292 21.14C94.2106 21.14 93.5666 20.9767 92.9972 20.65C92.4372 20.314 91.9939 19.8613 91.6672 19.292C91.3406 18.7133 91.1772 18.0553 91.1772 17.318C91.1772 16.5807 91.3406 15.9273 91.6672 15.358C91.9939 14.7793 92.4372 14.3267 92.9972 14C93.5666 13.664 94.2106 13.496 94.9292 13.496C95.6386 13.496 96.2732 13.664 96.8332 14C97.4026 14.3267 97.8506 14.7793 98.1772 15.358C98.5039 15.9273 98.6672 16.5807 98.6672 17.318C98.6672 18.0553 98.5039 18.7133 98.1772 19.292C97.8506 19.8613 97.4026 20.314 96.8332 20.65C96.2732 20.9767 95.6386 21.14 94.9292 21.14ZM94.9292 19.824C95.3679 19.824 95.7599 19.7167 96.1052 19.502C96.4506 19.278 96.7212 18.9793 96.9172 18.606C97.1132 18.2233 97.2066 17.794 97.1972 17.318C97.2066 16.8327 97.1132 16.4033 96.9172 16.03C96.7212 15.6473 96.4506 15.3487 96.1052 15.134C95.7599 14.9193 95.3679 14.812 94.9292 14.812C94.4906 14.812 94.0939 14.924 93.7392 15.148C93.3939 15.3627 93.1232 15.6613 92.9272 16.044C92.7312 16.4173 92.6379 16.842 92.6472 17.318C92.6379 17.794 92.7312 18.2233 92.9272 18.606C93.1232 18.9793 93.3939 19.278 93.7392 19.502C94.0939 19.7167 94.4906 19.824 94.9292 19.824ZM101.834 18.704L101.764 17.136L105.278 13.65H107.224L101.834 18.704ZM100.518 21V10.64H101.96V21H100.518ZM105.474 21L102.702 17.766L103.724 16.828L107.322 21H105.474Z" fill="#33353D"/>
<defs>
<linearGradient id="paint0_linear" x1="17.25" y1="0" x2="17.25" y2="32.0003" gradientUnits="userSpaceOnUse">
<stop stop-color="#00B2FF"/>
<stop offset="1" stop-color="#006AFF"/>
</linearGradient>
</defs>
</svg>
