<svg width="35" height="33" viewBox="0 0 35 33" fill="none" xmlns="http://www.w3.org/2000/svg">
<path fill-rule="evenodd" clip-rule="evenodd" d="M17.7175 0.75C8.01751 0.75 0.5 7.35288 0.5 16.2706C0.5 20.9353 2.55775 24.966 5.90777 27.7508C6.18841 27.9858 6.35809 28.3109 6.37195 28.6618L6.46553 31.5077C6.49669 32.4156 7.50478 33.0047 8.39862 32.6409L11.8144 31.2406C12.1034 31.1216 12.4276 31.0989 12.7324 31.1762C14.3017 31.5786 15.975 31.791 17.7175 31.791C27.4175 31.791 34.935 25.1882 34.935 16.2705C34.935 7.35288 27.4175 0.75 17.7175 0.75Z" fill="url(#paint0_linear)"/>
<path fill-rule="evenodd" clip-rule="evenodd" d="M7.38026 20.8096L12.4381 13.3536C13.2418 12.1688 14.967 11.8726 16.1726 12.7129L20.1946 15.517C20.3743 15.6419 20.5927 15.7091 20.817 15.7085C21.0413 15.708 21.2594 15.6396 21.4383 15.5138L26.8703 11.6827C27.5943 11.1709 28.5436 11.979 28.0551 12.6936L23.0007 20.1464C22.197 21.3311 20.4718 21.6274 19.2662 20.7871L15.2442 17.983C15.0645 17.8581 14.8461 17.7909 14.6218 17.7914C14.3975 17.792 14.1794 17.8604 14.0005 17.9862L8.565 21.8205C7.841 22.3324 6.89171 21.5243 7.38026 20.8096Z" fill="white"/>
<defs>
<linearGradient id="paint0_linear" x1="17.7175" y1="0.75" x2="17.7175" y2="32.7503" gradientUnits="userSpaceOnUse">
<stop stop-color="#00B2FF"/>
<stop offset="1" stop-color="#006AFF"/>
</linearGradient>
</defs>
</svg>
