<svg width="114" height="33" viewBox="0 0 114 33" fill="none" xmlns="http://www.w3.org/2000/svg">
<path fill-rule="evenodd" clip-rule="evenodd" d="M17.7825 0.5C8.08246 0.5 0.564941 7.10288 0.564941 16.0206C0.564941 20.6853 2.62269 24.716 5.97271 27.5008C6.25335 27.7358 6.42303 28.0609 6.43689 28.4118L6.53047 31.2577C6.56163 32.1656 7.56972 32.7547 8.46357 32.3909L11.8793 30.9906C12.1683 30.8716 12.4925 30.8489 12.7974 30.9262C14.3667 31.3286 16.04 31.541 17.7825 31.541C27.4825 31.541 35 24.9382 35 16.0205C35 7.10288 27.4825 0.5 17.7825 0.5Z" fill="url(#paint0_linear)"/>
<path fill-rule="evenodd" clip-rule="evenodd" d="M7.44508 20.5596L12.5029 13.1036C13.3066 11.9188 15.0318 11.6226 16.2374 12.4629L20.2594 15.267C20.4391 15.3919 20.6575 15.4591 20.8818 15.4585C21.1061 15.458 21.3242 15.3896 21.5031 15.2638L26.9352 11.4327C27.6591 10.9209 28.6084 11.729 28.1199 12.4436L23.0655 19.8964C22.2618 21.0811 20.5366 21.3774 19.331 20.5371L15.309 17.733C15.1293 17.6081 14.9109 17.5409 14.6866 17.5414C14.4623 17.542 14.2442 17.6104 14.0653 17.7362L8.62982 21.5705C7.90582 22.0824 6.95653 21.2743 7.44508 20.5596Z" fill="white"/>
<path d="M41.1167 22.5V11.3H42.3647V22.5H41.1167ZM41.7407 17.508V16.276H47.4047V17.508H41.7407ZM41.7407 12.516V11.3H48.1567V12.516H41.7407ZM53.1507 22.66C52.4254 22.66 51.7694 22.4733 51.1827 22.1C50.5961 21.716 50.1321 21.1987 49.7907 20.548C49.4494 19.8867 49.2787 19.14 49.2787 18.308C49.2787 17.4653 49.4547 16.7187 49.8067 16.068C50.1587 15.4173 50.6281 14.9053 51.2147 14.532C51.8121 14.1587 52.4787 13.972 53.2147 13.972C53.6521 13.972 54.0574 14.036 54.4307 14.164C54.8041 14.292 55.1347 14.4733 55.4227 14.708C55.7214 14.932 55.9667 15.1987 56.1587 15.508C56.3614 15.8067 56.5001 16.132 56.5747 16.484L56.2227 16.308L56.2707 14.148H57.4707V22.5H56.2547V20.452L56.5747 20.244C56.5001 20.564 56.3561 20.8733 56.1427 21.172C55.9294 21.46 55.6681 21.716 55.3587 21.94C55.0601 22.164 54.7187 22.34 54.3347 22.468C53.9614 22.596 53.5667 22.66 53.1507 22.66ZM53.4227 21.508C53.9774 21.508 54.4734 21.3747 54.9107 21.108C55.3481 20.8307 55.6894 20.452 55.9347 19.972C56.1907 19.4813 56.3187 18.9267 56.3187 18.308C56.3187 17.6893 56.1907 17.14 55.9347 16.66C55.6894 16.18 55.3481 15.8013 54.9107 15.524C54.4734 15.2467 53.9774 15.108 53.4227 15.108C52.8574 15.108 52.3561 15.2467 51.9187 15.524C51.4921 15.8013 51.1507 16.18 50.8947 16.66C50.6494 17.14 50.5267 17.6893 50.5267 18.308C50.5267 18.916 50.6494 19.4653 50.8947 19.956C51.1401 20.436 51.4814 20.8147 51.9187 21.092C52.3561 21.3693 52.8574 21.508 53.4227 21.508ZM63.3286 22.66C62.5393 22.66 61.8353 22.4733 61.2166 22.1C60.5979 21.716 60.1073 21.1987 59.7446 20.548C59.3926 19.8867 59.2166 19.14 59.2166 18.308C59.2166 17.476 59.3926 16.7347 59.7446 16.084C60.1073 15.4227 60.5979 14.9053 61.2166 14.532C61.8353 14.1587 62.5446 13.972 63.3446 13.972C64.0593 13.972 64.7099 14.116 65.2966 14.404C65.8833 14.6813 66.3526 15.0707 66.7046 15.572L66.0006 16.436C65.7979 16.1693 65.5526 15.9347 65.2646 15.732C64.9873 15.5293 64.6833 15.3747 64.3526 15.268C64.0326 15.1507 63.7126 15.092 63.3926 15.092C62.8273 15.092 62.3206 15.236 61.8726 15.524C61.4246 15.8013 61.0673 16.18 60.8006 16.66C60.5446 17.14 60.4166 17.6893 60.4166 18.308C60.4166 18.9267 60.5446 19.4813 60.8006 19.972C61.0673 20.452 61.4246 20.8307 61.8726 21.108C62.3206 21.3853 62.8219 21.524 63.3766 21.524C63.6966 21.524 64.0113 21.476 64.3206 21.38C64.6299 21.2733 64.9233 21.124 65.2006 20.932C65.4779 20.74 65.7339 20.5 65.9686 20.212L66.6726 21.076C66.3099 21.556 65.8246 21.94 65.2166 22.228C64.6086 22.516 63.9793 22.66 63.3286 22.66ZM71.9105 22.66C71.0785 22.66 70.3372 22.4787 69.6865 22.116C69.0465 21.7533 68.5452 21.2467 68.1825 20.596C67.8198 19.9453 67.6385 19.1987 67.6385 18.356C67.6385 17.7053 67.7398 17.1187 67.9425 16.596C68.1452 16.0627 68.4278 15.5987 68.7905 15.204C69.1638 14.8093 69.6065 14.5053 70.1185 14.292C70.6305 14.068 71.1852 13.956 71.7825 13.956C72.3478 13.956 72.8598 14.0573 73.3185 14.26C73.7878 14.4627 74.1878 14.7453 74.5185 15.108C74.8598 15.46 75.1158 15.8813 75.2865 16.372C75.4572 16.8627 75.5318 17.4013 75.5105 17.988L75.4945 18.548H68.5345L68.3585 17.54H74.5825L74.2945 17.812V17.428C74.2732 17.044 74.1612 16.676 73.9585 16.324C73.7558 15.9613 73.4678 15.668 73.0945 15.444C72.7318 15.22 72.2945 15.108 71.7825 15.108C71.1852 15.108 70.6678 15.2307 70.2305 15.476C69.7932 15.7107 69.4572 16.0627 69.2225 16.532C68.9878 17.0013 68.8705 17.5827 68.8705 18.276C68.8705 18.9373 68.9985 19.5133 69.2545 20.004C69.5105 20.484 69.8732 20.8573 70.3425 21.124C70.8225 21.3907 71.3985 21.524 72.0705 21.524C72.4652 21.524 72.8545 21.46 73.2385 21.332C73.6332 21.1933 74.0652 20.9267 74.5345 20.532L75.1585 21.396C74.9132 21.6413 74.6198 21.86 74.2785 22.052C73.9372 22.2333 73.5638 22.3827 73.1585 22.5C72.7532 22.6067 72.3372 22.66 71.9105 22.66ZM81.4549 22.66C81.0602 22.66 80.6762 22.6013 80.3029 22.484C79.9295 22.356 79.5882 22.1853 79.2789 21.972C78.9802 21.7587 78.7242 21.5133 78.5109 21.236C78.3082 20.9587 78.1695 20.6707 78.0949 20.372L78.4469 20.388L78.3989 22.484H77.2149V10.66H78.4149V16.148L78.1749 16.212C78.2495 15.9133 78.3829 15.6307 78.5749 15.364C78.7775 15.0867 79.0282 14.8467 79.3269 14.644C79.6255 14.4307 79.9509 14.2653 80.3029 14.148C80.6655 14.0307 81.0389 13.972 81.4229 13.972C82.1695 13.972 82.8362 14.1587 83.4229 14.532C84.0202 14.9053 84.4949 15.4173 84.8469 16.068C85.1989 16.7187 85.3749 17.4653 85.3749 18.308C85.3749 19.1507 85.2042 19.9027 84.8629 20.564C84.5215 21.2147 84.0522 21.7267 83.4549 22.1C82.8682 22.4733 82.2015 22.66 81.4549 22.66ZM81.2629 21.524C81.8282 21.524 82.3295 21.3853 82.7669 21.108C83.2042 20.82 83.5455 20.436 83.7909 19.956C84.0469 19.4653 84.1749 18.916 84.1749 18.308C84.1749 17.6893 84.0469 17.14 83.7909 16.66C83.5455 16.18 83.2042 15.8013 82.7669 15.524C82.3295 15.2467 81.8282 15.108 81.2629 15.108C80.6975 15.108 80.1962 15.2467 79.7589 15.524C79.3215 15.8013 78.9749 16.18 78.7189 16.66C78.4735 17.14 78.3509 17.6893 78.3509 18.308C78.3509 18.9267 78.4735 19.4813 78.7189 19.972C78.9749 20.452 79.3215 20.8307 79.7589 21.108C80.1962 21.3853 80.6975 21.524 81.2629 21.524ZM90.8171 22.66C89.9851 22.66 89.2438 22.4733 88.5931 22.1C87.9531 21.7267 87.4464 21.2093 87.0731 20.548C86.7104 19.8867 86.5291 19.1347 86.5291 18.292C86.5291 17.46 86.7104 16.7187 87.0731 16.068C87.4464 15.4173 87.9531 14.9053 88.5931 14.532C89.2438 14.1587 89.9851 13.972 90.8171 13.972C91.6384 13.972 92.3691 14.1587 93.0091 14.532C93.6598 14.9053 94.1664 15.4173 94.5291 16.068C94.9024 16.7187 95.0891 17.46 95.0891 18.292C95.0891 19.1347 94.9024 19.8867 94.5291 20.548C94.1664 21.2093 93.6598 21.7267 93.0091 22.1C92.3691 22.4733 91.6384 22.66 90.8171 22.66ZM90.8171 21.524C91.4038 21.524 91.9264 21.3853 92.3851 21.108C92.8438 20.82 93.2011 20.436 93.4571 19.956C93.7131 19.4653 93.8411 18.9107 93.8411 18.292C93.8411 17.6733 93.7131 17.124 93.4571 16.644C93.2011 16.164 92.8438 15.7907 92.3851 15.524C91.9264 15.2467 91.4038 15.108 90.8171 15.108C90.2304 15.108 89.7024 15.2467 89.2331 15.524C88.7744 15.7907 88.4118 16.1693 88.1451 16.66C87.8891 17.14 87.7664 17.684 87.7771 18.292C87.7664 18.9107 87.8891 19.4653 88.1451 19.956C88.4118 20.436 88.7744 20.82 89.2331 21.108C89.7024 21.3853 90.2304 21.524 90.8171 21.524ZM100.536 22.66C99.7039 22.66 98.9625 22.4733 98.3119 22.1C97.6719 21.7267 97.1652 21.2093 96.7919 20.548C96.4292 19.8867 96.2479 19.1347 96.2479 18.292C96.2479 17.46 96.4292 16.7187 96.7919 16.068C97.1652 15.4173 97.6719 14.9053 98.3119 14.532C98.9625 14.1587 99.7039 13.972 100.536 13.972C101.357 13.972 102.088 14.1587 102.728 14.532C103.379 14.9053 103.885 15.4173 104.248 16.068C104.621 16.7187 104.808 17.46 104.808 18.292C104.808 19.1347 104.621 19.8867 104.248 20.548C103.885 21.2093 103.379 21.7267 102.728 22.1C102.088 22.4733 101.357 22.66 100.536 22.66ZM100.536 21.524C101.123 21.524 101.645 21.3853 102.104 21.108C102.563 20.82 102.92 20.436 103.176 19.956C103.432 19.4653 103.56 18.9107 103.56 18.292C103.56 17.6733 103.432 17.124 103.176 16.644C102.92 16.164 102.563 15.7907 102.104 15.524C101.645 15.2467 101.123 15.108 100.536 15.108C99.9492 15.108 99.4212 15.2467 98.9519 15.524C98.4932 15.7907 98.1305 16.1693 97.8639 16.66C97.6079 17.14 97.4852 17.684 97.4959 18.292C97.4852 18.9107 97.6079 19.4653 97.8639 19.956C98.1305 20.436 98.4932 20.82 98.9519 21.108C99.4212 21.3853 99.9492 21.524 100.536 21.524ZM107.631 19.812L107.583 18.42L111.951 14.148H113.567L107.631 19.812ZM106.559 22.5V10.66H107.759V22.5H106.559ZM112.287 22.5L108.767 18.42L109.615 17.588L113.855 22.5H112.287Z" fill="#42424D"/>
<defs>
<linearGradient id="paint0_linear" x1="17.7825" y1="0.5" x2="17.7825" y2="32.5003" gradientUnits="userSpaceOnUse">
<stop stop-color="#00B2FF"/>
<stop offset="1" stop-color="#006AFF"/>
</linearGradient>
</defs>
</svg>
