<svg width="25" height="24" viewBox="0 0 25 24" fill="none" xmlns="http://www.w3.org/2000/svg">
<path d="M12.75 2.25C9.02344 2.25 6 5.12766 6 8.67188C6 12.75 10.5 19.2127 12.1523 21.4448C12.2209 21.5391 12.3108 21.6157 12.4147 21.6686C12.5186 21.7215 12.6335 21.749 12.75 21.749C12.8665 21.749 12.9814 21.7215 13.0853 21.6686C13.1892 21.6157 13.2791 21.5391 13.3477 21.4448C15 19.2136 19.5 12.7533 19.5 8.67188C19.5 5.12766 16.4766 2.25 12.75 2.25Z" stroke="#33353D" stroke-linecap="round" stroke-linejoin="round"/>
<path d="M12.75 11.25C13.9926 11.25 15 10.2426 15 9C15 7.75736 13.9926 6.75 12.75 6.75C11.5074 6.75 10.5 7.75736 10.5 9C10.5 10.2426 11.5074 11.25 12.75 11.25Z" stroke="#33353D" stroke-linecap="round" stroke-linejoin="round"/>
</svg>
