<svg width="187" height="45" viewBox="0 0 187 45" fill="none" xmlns="http://www.w3.org/2000/svg">
<g clip-path="url(#clip0_1457:8571)">
<path fill-rule="evenodd" clip-rule="evenodd" d="M37.0109 0.750001C37.3391 0.750443 37.6414 0.927507 37.8013 1.21287L51.5053 25.6899L72.2383 2.6663C72.532 2.34007 73.0188 2.27114 73.3924 2.50288C73.7659 2.73462 73.9181 3.2 73.7531 3.60617L59.0409 39.8395C58.9101 40.1615 58.6053 40.3801 58.257 40.4018C57.9088 40.4233 57.579 40.244 57.4092 39.9406L51.159 28.7771L37.6845 43.7403C37.5116 43.9323 37.2644 44.0415 37.0055 44.0403C36.7464 44.0391 36.5003 43.9276 36.3292 43.734L22.9009 28.5363L16.474 39.9428C16.302 40.248 15.9681 40.4266 15.6174 40.401C15.2667 40.3755 14.9626 40.1503 14.8372 39.8234L0.934738 3.58999C0.778311 3.18231 0.937608 2.72163 1.31299 2.49611C1.68838 2.2706 2.17213 2.34494 2.46169 2.67265L22.5718 25.4325L36.2194 1.21074C36.3799 0.925809 36.6827 0.749559 37.0109 0.750001ZM23.8406 26.8685L37.0161 41.78L50.226 27.1106L37.0071 3.50018L23.8406 26.8685ZM21.6321 27.1004L4.42191 7.62253L15.8398 37.3806L21.6321 27.1004ZM52.4383 27.3564L58.0703 37.4159L70.1339 7.7057L52.4383 27.3564Z" fill="#33353D"/>
<path fill-rule="evenodd" clip-rule="evenodd" d="M37.0109 3.45508C37.3288 3.45553 37.6231 3.62165 37.7866 3.89286L51.2631 26.2427L69.9781 5.81656C70.2707 5.49717 70.7499 5.42934 71.1204 5.65485C71.4908 5.88036 71.6485 6.3358 71.4962 6.74059L59.0493 39.8174C58.9273 40.1416 58.6295 40.3677 58.2832 40.3992C57.9367 40.4307 57.6027 40.262 57.4238 39.9651L50.9619 29.2484L37.6792 43.7456C37.5071 43.9334 37.2635 44.0401 37.0082 44.0398C36.7528 44.0393 36.5095 43.9317 36.3381 43.7434L23.0362 29.1289L16.4593 39.9673C16.2789 40.2646 15.943 40.4324 15.5957 40.3987C15.2484 40.365 14.9514 40.1358 14.8321 39.8094L2.74196 6.73259C2.59385 6.32738 2.75465 5.87449 3.12569 5.65187C3.49672 5.42925 3.97418 5.49919 4.26505 5.81876L22.7441 26.1213L36.234 3.8907C36.3983 3.61994 36.6931 3.45464 37.0109 3.45508ZM24.0144 27.517L37.0119 41.797L49.9883 27.634L37.0072 6.10551L24.0144 27.517ZM21.766 27.7333L6.02534 10.4394L15.8875 37.4207L21.766 27.7333ZM52.2365 27.8572L58.011 37.4338L68.1509 10.4877L52.2365 27.8572Z" fill="#33353D"/>
<path d="M85.6673 11.9003H87.5896L88.8002 15.3285L90.0107 11.9003H91.9477L90.1168 16.6122L91.4791 19.9237L94.5206 11.8711H96.7907L92.4171 22.2286H90.6613L88.8002 17.8813L86.939 22.2286H85.1832L80.8398 11.8711H83.0797L86.1367 19.9237L87.4688 16.6122L85.6673 11.9003Z" fill="#33353D"/>
<path d="M108.44 11.8711V22.2286H106.367V17.8085H101.493V22.2286H99.4045V11.8711H101.493V16.0578H106.367V11.8711H108.44Z" fill="#33353D"/>
<path d="M112.195 22.2286V11.8711H114.283V22.2286H112.195Z" fill="#33353D"/>
<path d="M126.075 13.6362H122.64V22.2286H120.566V13.6362H117.131V11.8711H126.075V13.6362Z" fill="#33353D"/>
<path d="M136.383 20.4635V22.2286H128.922V11.8711H136.247V13.6362H131.011V16.1308H135.535V17.7647H131.011V20.4635H136.383Z" fill="#33353D"/>
<path d="M148.287 22.2286V15.3722L145.518 20.4781H144.383L141.613 15.3722V22.2286H139.524V11.8711H141.764L144.943 17.7647L148.151 11.8711H150.375V22.2286H148.287Z" fill="#33353D"/>
<path d="M157.188 11.8711H159.035L163.121 22.2286H160.972L159.973 19.6466H156.22L155.237 22.2286H153.087L157.188 11.8711ZM159.595 18.2315L158.112 14.1614L156.568 18.2315H159.595Z" fill="#33353D"/>
<path d="M165.813 22.2286V11.8711H170.565C171.059 11.8711 171.513 11.9732 171.927 12.1774C172.351 12.372 172.714 12.6346 173.016 12.9652C173.319 13.2861 173.556 13.6557 173.728 14.0739C173.9 14.4823 173.985 14.8957 173.985 15.3139C173.985 15.9849 173.808 16.5976 173.455 17.152C173.113 17.6966 172.644 18.0905 172.048 18.3336L174.5 22.2286H172.154L169.959 18.7567H167.902V22.2286H165.813ZM167.902 16.9915H170.519C170.712 16.9915 170.888 16.9477 171.049 16.8602C171.221 16.7727 171.367 16.6559 171.488 16.5101C171.609 16.3545 171.705 16.1746 171.776 15.9704C171.846 15.7661 171.882 15.5473 171.882 15.3139C171.882 15.0708 171.841 14.847 171.761 14.6428C171.68 14.4386 171.569 14.2635 171.428 14.1177C171.297 13.962 171.14 13.8454 170.958 13.7676C170.787 13.68 170.611 13.6362 170.429 13.6362H167.902V16.9915Z" fill="#33353D"/>
<path d="M177.391 22.2286V11.8857H179.479V16.8019L183.989 11.8711H186.29L182.173 16.4663L186.547 22.2286H184.201L180.856 17.7501L179.479 19.1359V22.2286H177.391Z" fill="#33353D"/>
<path d="M81.1858 35.5606V29.0703H83.724C83.9863 29.0703 84.2251 29.1313 84.4424 29.2531C84.6649 29.3689 84.8543 29.5274 85.0105 29.7285C85.1718 29.9235 85.2971 30.146 85.3862 30.3958C85.4754 30.6396 85.5196 30.8894 85.5196 31.1454C85.5196 31.3708 85.4894 31.5903 85.4282 31.8036C85.3722 32.0108 85.289 32.1997 85.1777 32.3703C85.0716 32.541 84.9405 32.6873 84.785 32.8091C84.6347 32.931 84.4645 33.0194 84.2752 33.0742L85.7119 35.5606H84.8602L83.5074 33.2296H81.9373V35.5606H81.1858ZM81.9373 32.4983H83.7329C83.8883 32.4983 84.0276 32.4618 84.1499 32.3886C84.2781 32.3155 84.3872 32.218 84.4763 32.0961C84.5647 31.9681 84.6347 31.8218 84.6848 31.6573C84.7349 31.4928 84.76 31.3222 84.76 31.1454C84.76 30.9626 84.729 30.792 84.6679 30.6335C84.6126 30.4689 84.5345 30.3257 84.4343 30.2038C84.3393 30.0759 84.2251 29.9784 84.0917 29.9113C83.9635 29.8382 83.8272 29.8017 83.6828 29.8017H81.9373V32.4983Z" fill="#33353D"/>
<path d="M91.5337 34.8293V35.5606H87.5085V29.0703H91.4585V29.8017H88.2601V31.9041H91.0407V32.5897H88.2601V34.8293H91.5337Z" fill="#33353D"/>
<path d="M95.2044 29.0703H95.8387L98.2606 35.5606H97.4589L96.7575 33.6592H94.2694L93.576 35.5606H92.7744L95.2044 29.0703ZM96.5903 33.0194L95.5219 30.021L94.4197 33.0194H96.5903Z" fill="#33353D"/>
<path d="M99.8857 35.5606V29.0703H100.637V34.8293H103.945V35.5606H99.8857Z" fill="#33353D"/>
<path d="M112.317 34.8293V35.5606H108.292V29.0703H112.241V29.8017H109.043V31.9041H111.824V32.5897H109.043V34.8293H112.317Z" fill="#33353D"/>
<path d="M117.665 30.4312C117.599 30.3459 117.51 30.2636 117.399 30.1844C117.287 30.1052 117.161 30.0351 117.023 29.9741C116.884 29.9071 116.73 29.8553 116.563 29.8187C116.402 29.7761 116.232 29.7547 116.054 29.7547C115.592 29.7547 115.252 29.8492 115.035 30.0382C114.823 30.2271 114.717 30.4861 114.717 30.8151C114.717 30.9919 114.748 31.1382 114.809 31.2539C114.871 31.3697 114.966 31.4703 115.093 31.5556C115.227 31.6348 115.392 31.7049 115.586 31.7658C115.781 31.8268 116.012 31.8908 116.279 31.9578C116.585 32.0309 116.861 32.1163 117.106 32.2137C117.357 32.3052 117.568 32.421 117.74 32.5611C117.919 32.7013 118.052 32.8719 118.141 33.0731C118.236 33.2741 118.283 33.521 118.283 33.8135C118.283 34.1243 118.227 34.3955 118.116 34.6271C118.005 34.8526 117.852 35.0415 117.657 35.1938C117.468 35.3401 117.242 35.4498 116.981 35.5229C116.719 35.5899 116.435 35.6234 116.129 35.6234C115.672 35.6234 115.238 35.5472 114.826 35.3949C114.42 35.2365 114.05 35.008 113.715 34.7093L114.075 34.0146C114.164 34.1182 114.278 34.2217 114.417 34.3254C114.562 34.429 114.723 34.5234 114.902 34.6087C115.085 34.688 115.28 34.755 115.486 34.8099C115.697 34.8586 115.918 34.883 116.145 34.883C116.569 34.883 116.898 34.8007 117.131 34.6362C117.365 34.4717 117.482 34.2248 117.482 33.8957C117.482 33.7129 117.443 33.5606 117.365 33.4387C117.292 33.3107 117.184 33.201 117.039 33.1096C116.895 33.0182 116.713 32.9389 116.497 32.8719C116.285 32.7988 116.043 32.7257 115.77 32.6526C115.469 32.5733 115.205 32.488 114.977 32.3966C114.748 32.3052 114.556 32.1955 114.401 32.0675C114.25 31.9395 114.136 31.7841 114.058 31.6013C113.98 31.4184 113.941 31.1991 113.941 30.9431C113.941 30.6323 113.994 30.358 114.1 30.1204C114.205 29.8827 114.353 29.6816 114.542 29.517C114.731 29.3526 114.957 29.2306 115.218 29.1514C115.481 29.0661 115.764 29.0234 116.07 29.0234C116.472 29.0234 116.833 29.0905 117.156 29.2245C117.479 29.3586 117.766 29.5384 118.016 29.7639L117.665 30.4312Z" fill="#33353D"/>
<path d="M124.382 29.8017H122.336V35.5606H121.585V29.8017H119.539V29.0703H124.382V29.8017Z" fill="#33353D"/>
<path d="M127.313 29.0703H127.948L130.37 35.5606H129.568L128.867 33.6592H126.378L125.684 35.5606H124.883L127.313 29.0703ZM128.699 33.0194L127.63 30.021L126.528 33.0194H128.699Z" fill="#33353D"/>
<path d="M135.708 29.8017H133.662V35.5606H132.911V29.8017H130.865V29.0703H135.708V29.8017Z" fill="#33353D"/>
<path d="M141.422 34.8293V35.5606H137.397V29.0703H141.347V29.8017H138.149V31.9041H140.93V32.5897H138.149V34.8293H141.422Z" fill="#33353D"/>
<path d="M150.26 34.8293V35.5606H146.235V29.0703H150.185V29.8017H146.987V31.9041H149.767V32.5897H146.987V34.8293H150.26Z" fill="#33353D"/>
<path d="M152.277 29.0703L154.081 31.7762L155.885 29.0703H156.711L154.482 32.3612L156.644 35.5606H155.818L154.081 32.9462L152.344 35.5606H151.509L153.672 32.3612L151.442 29.0703H152.277Z" fill="#33353D"/>
<path d="M158.279 35.5606V29.0703H160.751C161.013 29.0703 161.252 29.1313 161.469 29.2531C161.691 29.3689 161.881 29.5274 162.037 29.7285C162.198 29.9235 162.324 30.146 162.413 30.3958C162.502 30.6396 162.546 30.8894 162.546 31.1454C162.546 31.4135 162.505 31.6725 162.421 31.9224C162.338 32.1722 162.217 32.3947 162.062 32.5897C161.912 32.7847 161.727 32.9401 161.511 33.0559C161.299 33.1717 161.063 33.2296 160.801 33.2296H159.031V35.5606H158.279ZM159.031 32.4983H160.759C160.915 32.4983 161.054 32.4648 161.176 32.3977C161.305 32.3246 161.414 32.2271 161.502 32.1052C161.591 31.9772 161.661 31.831 161.711 31.6665C161.761 31.5019 161.786 31.3282 161.786 31.1454C161.786 30.9564 161.755 30.7798 161.694 30.6152C161.639 30.4507 161.561 30.3074 161.461 30.1856C161.366 30.0637 161.252 29.9692 161.118 29.9022C160.99 29.8352 160.854 29.8017 160.709 29.8017H159.031V32.4983Z" fill="#33353D"/>
<path d="M168.341 34.8293V35.5606H164.316V29.0703H168.266V29.8017H165.069V31.9041H167.849V32.5897H165.069V34.8293H168.341Z" fill="#33353D"/>
<path d="M170.208 35.5606V29.0703H172.748C173.009 29.0703 173.249 29.1313 173.465 29.2531C173.688 29.3689 173.877 29.5274 174.033 29.7285C174.195 29.9235 174.32 30.146 174.409 30.3958C174.498 30.6396 174.542 30.8894 174.542 31.1454C174.542 31.3708 174.512 31.5903 174.451 31.8036C174.395 32.0108 174.312 32.1997 174.2 32.3703C174.094 32.541 173.964 32.6873 173.808 32.8091C173.657 32.931 173.487 33.0194 173.299 33.0742L174.735 35.5606H173.883L172.53 33.2296H170.96V35.5606H170.208ZM170.96 32.4983H172.756C172.911 32.4983 173.05 32.4618 173.173 32.3886C173.301 32.3155 173.41 32.218 173.499 32.0961C173.587 31.9681 173.657 31.8218 173.708 31.6573C173.758 31.4928 173.783 31.3222 173.783 31.1454C173.783 30.9626 173.752 30.792 173.691 30.6335C173.635 30.4689 173.557 30.3257 173.457 30.2038C173.362 30.0759 173.249 29.9784 173.114 29.9113C172.986 29.8382 172.85 29.8017 172.706 29.8017H170.96V32.4983Z" fill="#33353D"/>
<path d="M180.758 29.8017H178.712V35.5606H177.961V29.8017H175.915V29.0703H180.758V29.8017Z" fill="#33353D"/>
<path d="M185.928 30.4312C185.862 30.3459 185.773 30.2636 185.662 30.1844C185.55 30.1052 185.425 30.0351 185.286 29.9741C185.147 29.9071 184.993 29.8553 184.826 29.8187C184.665 29.7761 184.495 29.7547 184.317 29.7547C183.855 29.7547 183.515 29.8492 183.298 30.0382C183.087 30.2271 182.981 30.4861 182.981 30.8151C182.981 30.9919 183.012 31.1382 183.073 31.2539C183.134 31.3697 183.229 31.4703 183.357 31.5556C183.49 31.6348 183.655 31.7049 183.849 31.7658C184.044 31.8268 184.275 31.8908 184.543 31.9578C184.848 32.0309 185.124 32.1163 185.369 32.2137C185.62 32.3052 185.831 32.421 186.004 32.5611C186.182 32.7013 186.315 32.8719 186.404 33.0731C186.499 33.2741 186.547 33.521 186.547 33.8135C186.547 34.1243 186.491 34.3955 186.379 34.6271C186.268 34.8526 186.115 35.0415 185.92 35.1938C185.731 35.3401 185.506 35.4498 185.244 35.5229C184.982 35.5899 184.698 35.6234 184.392 35.6234C183.935 35.6234 183.501 35.5472 183.09 35.3949C182.683 35.2365 182.313 35.008 181.979 34.7093L182.338 34.0146C182.427 34.1182 182.541 34.2217 182.68 34.3254C182.825 34.429 182.986 34.5234 183.165 34.6087C183.348 34.688 183.543 34.755 183.749 34.8099C183.96 34.8586 184.181 34.883 184.409 34.883C184.832 34.883 185.161 34.8007 185.394 34.6362C185.628 34.4717 185.745 34.2248 185.745 33.8957C185.745 33.7129 185.706 33.5606 185.628 33.4387C185.556 33.3107 185.447 33.201 185.302 33.1096C185.158 33.0182 184.977 32.9389 184.76 32.8719C184.548 32.7988 184.306 32.7257 184.033 32.6526C183.733 32.5733 183.468 32.488 183.24 32.3966C183.011 32.3052 182.819 32.1955 182.664 32.0675C182.513 31.9395 182.399 31.7841 182.321 31.6013C182.243 31.4184 182.204 31.1991 182.204 30.9431C182.204 30.6323 182.257 30.358 182.363 30.1204C182.468 29.8827 182.617 29.6816 182.805 29.517C182.995 29.3526 183.22 29.2306 183.482 29.1514C183.744 29.0661 184.028 29.0234 184.334 29.0234C184.735 29.0234 185.097 29.0905 185.419 29.2245C185.742 29.3586 186.029 29.5384 186.279 29.7639L185.928 30.4312Z" fill="#33353D"/>
</g>
<defs>
<clipPath id="clip0_1457:8571">
<rect width="185.672" height="44" fill="white" transform="translate(0.875 0.75)"/>
</clipPath>
</defs>
</svg>
