<svg width="41" height="40" viewBox="0 0 41 40" fill="none" xmlns="http://www.w3.org/2000/svg">
<circle cx="20.875" cy="20" r="20" fill="#12A3EC"/>
<path fill-rule="evenodd" clip-rule="evenodd" d="M20.875 30C26.3978 30 30.875 25.5228 30.875 20C30.875 16.0349 28.5672 12.6087 25.2216 10.9915C25.6201 11.4537 25.943 11.9773 26.1773 12.5429C26.4657 13.2392 26.6141 13.9855 26.6141 14.7391C26.6141 15.4928 26.4657 16.2391 26.1773 16.9354C25.8888 17.6317 25.4661 18.2644 24.9332 18.7973C24.4003 19.3302 23.7676 19.753 23.0713 20.0414C22.3777 20.3287 21.6316 20.4844 20.875 20.4844L20.875 20.4844C20.2695 20.4844 19.6542 20.6369 19.0614 20.8825C18.4864 21.1206 17.964 21.4697 17.5239 21.9098C17.0839 22.3499 16.7348 22.8723 16.4966 23.4473C16.2585 24.0223 16.1359 24.6385 16.1359 25.2609C16.1359 25.8832 16.2584 26.4995 16.4966 27.0745C16.7348 27.6494 17.0839 28.1719 17.5239 28.6119C17.964 29.052 18.4864 29.4011 19.0614 29.6393C19.6364 29.8774 20.2526 30 20.875 30ZM20.875 19.4844C21.4944 19.4844 22.1108 19.3568 22.6886 19.1175C23.2636 18.8794 23.786 18.5303 24.2261 18.0902C24.6661 17.6501 25.0152 17.1277 25.2534 16.5527C25.4915 15.9777 25.6141 15.3615 25.6141 14.7391C25.6141 14.1168 25.4915 13.5005 25.2534 12.9255C25.0152 12.3506 24.6661 11.8281 24.2261 11.3881C23.786 10.948 23.2636 10.5989 22.6886 10.3607C22.1136 10.1226 21.4974 10 20.875 10C15.3522 10 10.875 14.4772 10.875 20C10.875 23.9651 13.1828 27.3913 16.5284 29.0085C16.1299 28.5462 15.807 28.0227 15.5727 27.4571C15.2843 26.7608 15.1359 26.0145 15.1359 25.2609C15.1359 24.5072 15.2843 23.7609 15.5727 23.0646C15.8612 22.3683 16.2839 21.7356 16.8168 21.2027C17.3497 20.6698 17.9824 20.247 18.6787 19.9586C19.3572 19.6776 20.1044 19.4844 20.875 19.4844L20.875 19.4844ZM20.875 9C14.7999 9 9.875 13.9249 9.875 20C9.875 26.0751 14.7999 31 20.875 31C26.9501 31 31.875 26.0751 31.875 20C31.875 13.9249 26.9501 9 20.875 9ZM20.875 15.6522C21.3793 15.6522 21.788 15.2434 21.788 14.7391C21.788 14.2349 21.3793 13.8261 20.875 13.8261C20.3707 13.8261 19.962 14.2349 19.962 14.7391C19.962 15.2434 20.3707 15.6522 20.875 15.6522ZM20.875 16.6522C21.9315 16.6522 22.788 15.7957 22.788 14.7391C22.788 13.6826 21.9315 12.8261 20.875 12.8261C19.8185 12.8261 18.962 13.6826 18.962 14.7391C18.962 15.7957 19.8185 16.6522 20.875 16.6522ZM21.788 25.2609C21.788 25.7651 21.3793 26.1739 20.875 26.1739C20.3707 26.1739 19.962 25.7651 19.962 25.2609C19.962 24.7566 20.3707 24.3478 20.875 24.3478C21.3793 24.3478 21.788 24.7566 21.788 25.2609ZM22.788 25.2609C22.788 26.3174 21.9315 27.1739 20.875 27.1739C19.8185 27.1739 18.962 26.3174 18.962 25.2609C18.962 24.2043 19.8185 23.3478 20.875 23.3478C21.9315 23.3478 22.788 24.2043 22.788 25.2609Z" fill="white"/>
</svg>
