<svg width="41" height="40" viewBox="0 0 41 40" fill="none" xmlns="http://www.w3.org/2000/svg">
<circle cx="20.875" cy="20" r="20" fill="#12A3EC"/>
<path d="M17.425 20.0001C16.355 19.2901 15.175 18.7301 13.895 18.3901C15.175 18.7301 16.355 19.2901 17.425 20.0001ZM27.855 18.3901C26.565 18.7301 25.365 19.3001 24.285 20.0301C25.365 19.3001 26.565 18.7301 27.855 18.3901Z" fill="white"/>
<path d="M11.3858 18.5113C13.4994 18.6052 15.463 19.2789 17.1291 20.3792L17.1193 20.3932C17.2141 20.4627 17.309 20.5205 17.3844 20.5663L17.3905 20.5699C17.4476 20.6046 17.4927 20.6319 17.5325 20.6582C18.6814 21.4892 19.6738 22.5295 20.4568 23.7241L20.875 24.3621L21.2932 23.7241C22.069 22.5405 23.0504 21.5084 24.1859 20.6811L24.1899 20.6863C24.2322 20.6537 24.2803 20.6229 24.3457 20.5829C24.3547 20.5774 24.3643 20.5716 24.3743 20.5655C24.4305 20.5313 24.5017 20.4881 24.5696 20.4411L24.5565 20.4221C26.2363 19.2964 28.2233 18.6064 30.3642 18.5113C30.1572 23.39 27.003 27.4708 22.6795 29.0182C22.0907 29.2204 21.4939 29.3784 20.8715 29.4926C20.2508 29.3872 19.6498 29.2296 19.0765 29.0203L19.0734 29.0192C14.7484 27.4726 11.5928 23.3911 11.3858 18.5113ZM20.8765 19.5536C19.979 18.6853 18.9822 17.9487 17.9145 17.3495C18.1794 14.9619 19.1832 12.6296 20.9346 10.7228C22.6615 12.6116 23.6217 14.9425 23.8416 17.3481C22.7731 17.9541 21.7752 18.691 20.8765 19.5536Z" stroke="white"/>
</svg>
