<svg width="41" height="40" viewBox="0 0 41 40" fill="none" xmlns="http://www.w3.org/2000/svg">
<circle cx="20.375" cy="20" r="20" fill="#12A3EC"/>
<g clip-path="url(#clip0)">
<path fill-rule="evenodd" clip-rule="evenodd" d="M19.875 10.1406V13.7406H20.875V10.1406H19.875ZM11.6217 14.0942L14.1672 16.6398L14.8743 15.9327L12.3288 13.3871L11.6217 14.0942ZM11.975 22.5656H8.375V21.5656H11.975V22.5656ZM11.9752 26.2781L28.7752 26.2781V25.2781H26.2906C26.7205 24.4866 26.9889 23.6137 27.0758 22.7101C27.196 21.4595 26.9639 20.2002 26.4057 19.0747C25.8474 17.9491 24.9853 17.0023 23.9169 16.3413C22.8485 15.6803 21.6164 15.3315 20.36 15.3344C19.1037 15.3373 17.8732 15.6917 16.8078 16.3576C15.7424 17.0235 14.8847 17.9742 14.3316 19.1023C13.7785 20.2304 13.5521 21.4907 13.6781 22.7407C13.7681 23.6336 14.0353 24.4958 14.4602 25.2781H11.9752V26.2781ZM15.6292 25.2781C15.0979 24.4932 14.7685 23.5871 14.6731 22.6404C14.5658 21.5761 14.7585 20.503 15.2294 19.5425C15.7004 18.5821 16.4307 17.7725 17.3378 17.2056C18.2449 16.6386 19.2926 16.3368 20.3623 16.3344C21.432 16.3319 22.4811 16.6289 23.3908 17.1917C24.3005 17.7545 25.0345 18.5607 25.5098 19.519C25.9851 20.4773 26.1828 21.5495 26.0804 22.6143C25.9884 23.5702 25.658 24.4858 25.1217 25.2781L15.6292 25.2781ZM25.1744 29.8594H15.5744V28.8594H25.1744L25.1744 29.8594ZM28.4212 13.3871L25.8757 15.9327L26.5828 16.6398L29.1283 14.0942L28.4212 13.3871ZM28.775 21.5656H32.375V22.5656H28.775V21.5656Z" fill="white"/>
</g>
<defs>
<clipPath id="clip0">
<rect width="24" height="24" fill="white" transform="translate(8.375 8)"/>
</clipPath>
</defs>
</svg>
