<svg width="41" height="40" viewBox="0 0 41 40" fill="none" xmlns="http://www.w3.org/2000/svg">
<circle cx="20.875" cy="20" r="20" fill="#12A3EC"/>
<path d="M29.4464 28.5715V19.2858M12.3036 19.2858V28.5715M10.875 29.2858H30.875M22.3036 29.2858V22.5001C22.3036 22.2159 22.4165 21.9434 22.6174 21.7425C22.8183 21.5415 23.0908 21.4286 23.375 21.4286H26.2321C26.5163 21.4286 26.7888 21.5415 26.9898 21.7425C27.1907 21.9434 27.3036 22.2159 27.3036 22.5001V29.2858M26.521 10.7144H15.229C14.2562 10.7144 13.3777 11.2501 13 12.0742L11.067 16.2947C10.4161 17.7148 11.4969 19.3237 13.1737 19.3751H13.2629C14.6647 19.3751 15.8009 18.251 15.8009 17.0434C15.8009 18.2487 16.9375 19.3751 18.3393 19.3751C19.7411 19.3751 20.875 18.3313 20.875 17.0434C20.875 18.2487 22.0112 19.3751 23.4129 19.3751C24.8147 19.3751 25.9513 18.3313 25.9513 17.0434C25.9513 18.3313 27.0875 19.3751 28.4893 19.3751H28.5763C30.2531 19.3228 31.3339 17.7139 30.683 16.2947L28.75 12.0742C28.3723 11.2501 27.4938 10.7144 26.521 10.7144ZM15.5179 21.4286H19.0893C19.3734 21.4286 19.646 21.5415 19.8469 21.7425C20.0478 21.9434 20.1607 22.2159 20.1607 22.5001V26.4286H14.4464V22.5001C14.4464 22.2159 14.5593 21.9434 14.7602 21.7425C14.9612 21.5415 15.2337 21.4286 15.5179 21.4286Z" stroke="white" stroke-linecap="square" stroke-linejoin="round"/>
</svg>
