<svg width="25" height="24" viewBox="0 0 25 24" fill="none" xmlns="http://www.w3.org/2000/svg">
<path d="M5.25 12.0002V12.2502H5.5H22.5C22.6989 12.2502 22.8897 12.3293 23.0303 12.4699C23.171 12.6106 23.25 12.8013 23.25 13.0002C23.25 13.1991 23.171 13.3899 23.0303 13.5306C22.8897 13.6712 22.6989 13.7502 22.5 13.7502H21.5H21.25V14.0002L21.25 16.9995C21.25 16.9997 21.25 16.9999 21.25 17.0001C21.2481 17.5666 21.071 18.1187 20.7429 18.5806C20.4147 19.0427 19.9515 19.3919 19.4169 19.5802L19.25 19.639V19.816V21.0002C19.25 21.1991 19.171 21.3899 19.0303 21.5306C18.8897 21.6712 18.6989 21.7502 18.5 21.7502C18.3011 21.7502 18.1103 21.6712 17.9697 21.5306C17.829 21.3899 17.75 21.1991 17.75 21.0002V20.0002V19.7502H17.5H7.5H7.25V20.0002V21.0002C7.25 21.1991 7.17098 21.3899 7.03033 21.5306C6.88968 21.6712 6.69891 21.7502 6.5 21.7502C6.30109 21.7502 6.11032 21.6712 5.96967 21.5306C5.82902 21.3899 5.75 21.1991 5.75 21.0002V19.8159V19.6389L5.58305 19.5801C5.04848 19.3918 4.58529 19.0427 4.25709 18.5806C3.92895 18.1187 3.75182 17.5665 3.75 16.9998V14.0002V13.7502H3.5H2.5C2.30109 13.7502 2.11032 13.6712 1.96967 13.5306C1.82902 13.3899 1.75 13.1991 1.75 13.0002C1.75 12.8013 1.82902 12.6106 1.96967 12.4699C2.11032 12.3293 2.30109 12.2502 2.5 12.2502H3.5H3.75V12.0002L3.75 6.41039L3.75 6.40987C3.74872 5.8002 3.8964 5.19945 4.18021 4.65986C4.46401 4.12027 4.87535 3.65819 5.37843 3.3138C5.88152 2.96941 6.46113 2.75315 7.06684 2.68381C7.67256 2.61448 8.28605 2.69417 8.85394 2.91596L8.98185 2.96592L9.09262 2.88478C9.71647 2.42781 10.4831 2.20874 11.2542 2.26705C12.0252 2.32536 12.7501 2.65717 13.2981 3.20267C13.2981 3.20271 13.2982 3.20276 13.2982 3.2028L14.3584 4.26295L14.3584 4.263C14.4281 4.33261 14.4833 4.41527 14.521 4.50624C14.5587 4.59722 14.5781 4.69473 14.5781 4.7932C14.5781 4.89168 14.5587 4.98919 14.521 5.08017C14.4833 5.17114 14.4281 5.2538 14.3584 5.32341L14.3584 5.32346L10.8232 8.85862L10.8232 8.85866C10.7536 8.92831 10.6709 8.98356 10.5799 9.02126C10.489 9.05895 10.3914 9.07836 10.293 9.07836C10.1945 9.07836 10.097 9.05895 10.006 9.02126C9.91503 8.98356 9.83238 8.92831 9.76276 8.85866L9.76271 8.85861L8.70275 7.7987C8.70262 7.79857 8.70249 7.79843 8.70236 7.7983C8.28095 7.37373 7.98525 6.84081 7.84802 6.25854C7.71075 5.6761 7.73741 5.06702 7.92503 4.49879L8.02287 4.20248L7.71236 4.17163C7.26568 4.12725 6.81596 4.2178 6.42128 4.43159C6.06404 4.62363 5.76609 4.90967 5.55965 5.25879C5.35335 5.60767 5.24628 6.00628 5.25 6.41157V12.0002ZM9.76291 4.26267L9.76251 4.26307C9.43479 4.5914 9.25074 5.03635 9.25074 5.50024C9.25075 5.96414 9.43482 6.40908 9.76254 6.7374L9.76271 6.73756L10.1162 7.09107L10.293 7.26785L10.4698 7.09107L12.5908 4.96998L12.7676 4.79321L12.5908 4.61643L12.2373 4.26291L12.2371 4.26267C11.9087 3.93514 11.4638 3.75121 11 3.75121C10.5362 3.75121 10.0913 3.93514 9.76291 4.26267ZM19.75 17.0004V17.0002V14.0002V13.7502H19.5H5.5H5.25V14.0002V17.0002V17.0004C5.25022 17.3318 5.38197 17.6496 5.61631 17.8839C5.85065 18.1183 6.16842 18.25 6.49983 18.2502H6.5L18.5 18.2502L18.5002 18.2502C18.8316 18.25 19.1493 18.1183 19.3837 17.8839C19.618 17.6496 19.7498 17.3318 19.75 17.0004Z" fill="#33353D" stroke="white" stroke-width="0.5"/>
</svg>
