<svg width="25" height="25" viewBox="0 0 25 25" fill="none" xmlns="http://www.w3.org/2000/svg">
<path d="M11.25 14H11.5V13.75V7.75C11.5 7.55109 11.579 7.36032 11.7197 7.21967C11.8603 7.07902 12.0511 7 12.25 7H20.25C20.9793 7 21.6788 7.28973 22.1945 7.80546C22.7103 8.32118 23 9.02065 23 9.75V18.75C23 18.9489 22.921 19.1397 22.7803 19.2803C22.6397 19.421 22.4489 19.5 22.25 19.5C22.0511 19.5 21.8603 19.421 21.7197 19.2803C21.579 19.1397 21.5 18.9489 21.5 18.75V15.75V15.5H21.25H3.25H3V15.75V18.75C3 18.9489 2.92098 19.1397 2.78033 19.2803C2.63968 19.421 2.44891 19.5 2.25 19.5C2.05109 19.5 1.86032 19.421 1.71967 19.2803C1.57902 19.1397 1.5 18.9489 1.5 18.75V5.75C1.5 5.55109 1.57902 5.36032 1.71967 5.21967C1.86032 5.07902 2.05109 5 2.25 5C2.44891 5 2.63968 5.07902 2.78033 5.21967C2.92098 5.36032 3 5.55109 3 5.75V13.75V14H3.25H11.25ZM21.25 14H21.5V13.75V9.75C21.5 9.41848 21.3683 9.10054 21.1339 8.86612C20.8995 8.6317 20.5815 8.5 20.25 8.5H13.25H13V8.75V13.75V14H13.25H21.25ZM8.77782 12.0365C8.32558 12.3387 7.7939 12.5 7.25 12.5C6.52065 12.5 5.82118 12.2103 5.30546 11.6945C4.78973 11.1788 4.5 10.4793 4.5 9.75C4.5 9.2061 4.66128 8.67442 4.96346 8.22218C5.26563 7.76995 5.69512 7.41747 6.19762 7.20933C6.70012 7.00119 7.25305 6.94673 7.7865 7.05284C8.31995 7.15895 8.80995 7.42086 9.19454 7.80546C9.57914 8.19005 9.84105 8.68005 9.94716 9.2135C10.0533 9.74695 9.99881 10.2999 9.79067 10.8024C9.58253 11.3049 9.23005 11.7344 8.77782 12.0365ZM7.94446 8.71066C7.7389 8.57331 7.49723 8.5 7.25 8.5C6.91848 8.5 6.60054 8.6317 6.36612 8.86612C6.1317 9.10054 6 9.41848 6 9.75C6 9.99723 6.07331 10.2389 6.21066 10.4445C6.34801 10.65 6.54324 10.8102 6.77165 10.9048C7.00005 10.9995 7.25139 11.0242 7.49386 10.976C7.73634 10.9278 7.95907 10.8087 8.13388 10.6339C8.3087 10.4591 8.42775 10.2363 8.47598 9.99386C8.52421 9.75139 8.49946 9.50005 8.40485 9.27165C8.31024 9.04324 8.15002 8.84801 7.94446 8.71066Z" fill="white" stroke="#12A3EC" stroke-width="0.5"/>
</svg>
