<svg width="25" height="24" viewBox="0 0 25 24" fill="none" xmlns="http://www.w3.org/2000/svg">
<path d="M11.5 13.75H11.75V13.5V7.5C11.75 7.30109 11.829 7.11032 11.9697 6.96967C12.1103 6.82902 12.3011 6.75 12.5 6.75H20.5C21.2293 6.75 21.9288 7.03973 22.4445 7.55546C22.9603 8.07118 23.25 8.77065 23.25 9.5V18.5C23.25 18.6989 23.171 18.8897 23.0303 19.0303C22.8897 19.171 22.6989 19.25 22.5 19.25C22.3011 19.25 22.1103 19.171 21.9697 19.0303C21.829 18.8897 21.75 18.6989 21.75 18.5V15.5V15.25H21.5H3.5H3.25V15.5V18.5C3.25 18.6989 3.17098 18.8897 3.03033 19.0303C2.88968 19.171 2.69891 19.25 2.5 19.25C2.30109 19.25 2.11032 19.171 1.96967 19.0303C1.82902 18.8897 1.75 18.6989 1.75 18.5V5.5C1.75 5.30109 1.82902 5.11032 1.96967 4.96967C2.11032 4.82902 2.30109 4.75 2.5 4.75C2.69891 4.75 2.88968 4.82902 3.03033 4.96967C3.17098 5.11032 3.25 5.30109 3.25 5.5V13.5V13.75H3.5H11.5ZM21.5 13.75H21.75V13.5V9.5C21.75 9.16848 21.6183 8.85054 21.3839 8.61612C21.1495 8.3817 20.8315 8.25 20.5 8.25H13.5H13.25V8.5V13.5V13.75H13.5H21.5ZM9.02782 11.7865C8.57558 12.0887 8.0439 12.25 7.5 12.25C6.77065 12.25 6.07118 11.9603 5.55546 11.4445C5.03973 10.9288 4.75 10.2293 4.75 9.5C4.75 8.9561 4.91128 8.42442 5.21346 7.97218C5.51563 7.51995 5.94512 7.16747 6.44762 6.95933C6.95012 6.75119 7.50305 6.69673 8.0365 6.80284C8.56995 6.90895 9.05995 7.17086 9.44454 7.55546C9.82914 7.94005 10.0911 8.43005 10.1972 8.9635C10.3033 9.49695 10.2488 10.0499 10.0407 10.5524C9.83253 11.0549 9.48005 11.4844 9.02782 11.7865ZM8.19446 8.46066C7.9889 8.32331 7.74723 8.25 7.5 8.25C7.16848 8.25 6.85054 8.3817 6.61612 8.61612C6.3817 8.85054 6.25 9.16848 6.25 9.5C6.25 9.74723 6.32331 9.9889 6.46066 10.1945C6.59801 10.4 6.79324 10.5602 7.02165 10.6548C7.25005 10.7495 7.50139 10.7742 7.74386 10.726C7.98634 10.6778 8.20907 10.5587 8.38388 10.3839C8.5587 10.2091 8.67775 9.98634 8.72598 9.74386C8.77421 9.50139 8.74946 9.25005 8.65485 9.02165C8.56024 8.79324 8.40002 8.59801 8.19446 8.46066Z" fill="#33353D" stroke="white" stroke-width="0.5"/>
</svg>
