<svg width="25" height="24" viewBox="0 0 25 24" fill="none" xmlns="http://www.w3.org/2000/svg">
<path d="M11.5 20.25H11.75V20V13V12.75H11.5H4.5H4.25V13V20V20.25H4.5H11.5ZM11.5 11.25H11.75V11V4V3.75H11.5H4.5H4.25V4V11V11.25H4.5H11.5ZM20.5 20.25H20.75V20V13V12.75H20.5H13.5H13.25V13V20V20.25H13.5H20.5ZM20.5 11.25H20.75V11V4V3.75H20.5H13.5H13.25V4V11V11.25H13.5H20.5ZM3.5 2.25H21.5C21.6989 2.25 21.8897 2.32902 22.0303 2.46967C22.171 2.61032 22.25 2.80109 22.25 3V21C22.25 21.1989 22.171 21.3897 22.0303 21.5303C21.8897 21.671 21.6989 21.75 21.5 21.75H3.5C3.30109 21.75 3.11032 21.671 2.96967 21.5303C2.82902 21.3897 2.75 21.1989 2.75 21V3C2.75 2.80109 2.82902 2.61032 2.96967 2.46967C3.11032 2.32902 3.30109 2.25 3.5 2.25Z" fill="white" stroke="#12A3EC" stroke-width="0.5"/>
</svg>
