<svg width="86" height="65" viewBox="0 0 86 65" fill="none" xmlns="http://www.w3.org/2000/svg">
<path fill-rule="evenodd" clip-rule="evenodd" d="M42.762 0.500001C43.0257 0.500355 43.2686 0.642451 43.397 0.871459L54.4081 20.5145L71.0669 2.03784C71.3029 1.77605 71.6941 1.72073 71.9942 1.9067C72.2943 2.09267 72.4166 2.46614 72.2841 2.7921L60.4629 31.8697C60.3578 32.1281 60.1129 32.3035 59.8331 32.3209C59.5533 32.3382 59.2883 32.1942 59.1518 31.9507L54.1299 22.9919L43.3032 35.0001C43.1642 35.1542 42.9657 35.2418 42.7576 35.2408C42.5494 35.2398 42.3517 35.1503 42.2142 34.995L31.4246 22.7987L26.2607 31.9525C26.1225 32.1974 25.8542 32.3408 25.5725 32.3203C25.2907 32.2998 25.0463 32.1191 24.9455 31.8567L13.775 2.77912C13.6493 2.45194 13.7773 2.08225 14.0789 1.90127C14.3806 1.72029 14.7692 1.77995 15.0019 2.04294L31.1602 20.3079L42.126 0.869751C42.255 0.641088 42.4982 0.499646 42.762 0.500001ZM32.1797 21.4603L42.7662 33.4269L53.3802 21.6546L42.7589 2.70704L32.1797 21.4603ZM30.4052 21.6464L16.5769 6.01526L25.7511 29.8963L30.4052 21.6464ZM55.1578 21.8519L59.6831 29.9246L69.3761 6.08201L55.1578 21.8519Z" fill="#33353D"/>
<path fill-rule="evenodd" clip-rule="evenodd" d="M42.7619 2.67155C43.0173 2.67191 43.2538 2.80523 43.3851 3.02288L54.2134 20.9588L69.2508 4.56666C69.4859 4.31035 69.8709 4.25591 70.1686 4.43689C70.4663 4.61786 70.593 4.98336 70.4706 5.3082L60.4696 31.8526C60.3715 32.1128 60.1323 32.2942 59.854 32.3195C59.5756 32.3447 59.3073 32.2094 59.1635 31.9712L53.9714 23.3709L43.2988 35.005C43.1606 35.1557 42.9648 35.2414 42.7597 35.2411C42.5545 35.2407 42.359 35.1544 42.2213 35.0032L31.5333 23.275L26.2488 31.9729C26.1038 32.2115 25.8339 32.3461 25.5549 32.3191C25.2758 32.292 25.0372 32.1081 24.9413 31.8462L15.227 5.30178C15.108 4.97659 15.2372 4.61314 15.5353 4.43449C15.8334 4.25584 16.2171 4.31197 16.4508 4.56842L31.2986 20.8614L42.1377 3.02114C42.2697 2.80385 42.5065 2.6712 42.7619 2.67155ZM32.3193 21.9814L42.7626 33.4412L53.1892 22.0753L42.7589 4.79854L32.3193 21.9814ZM30.5127 22.155L17.8652 8.27651L25.7893 29.9292L30.5127 22.155ZM54.9956 22.2545L59.6353 29.9398L67.7826 8.31529L54.9956 22.2545Z" fill="#33353D"/>
<path d="M4.44378 45.4622H5.98833L6.961 48.2134L7.93367 45.4622H9.49006L8.01892 49.2436L9.11354 51.9011L11.5574 45.4388H13.3813L9.86717 53.7508H8.45641L6.961 50.2621L5.46559 53.7508H4.05483L0.564941 45.4388H2.36465L4.82089 51.9011L5.89124 49.2436L4.44378 45.4622Z" fill="#33353D"/>
<path d="M22.7416 45.4388V53.7508H21.0757V50.2036H17.1601V53.7508H15.4818V45.4388H17.1601V48.7987H21.0757V45.4388H22.7416Z" fill="#33353D"/>
<path d="M25.7585 53.7508V45.4388H27.4362V53.7508H25.7585Z" fill="#33353D"/>
<path d="M36.9108 46.8553H34.1503V53.7508H32.4844V46.8553H29.7244V45.4388H36.9108V46.8553Z" fill="#33353D"/>
<path d="M45.1928 52.3343V53.7508H39.1981V45.4388H45.0839V46.8553H40.8765V48.8572H44.512V50.1684H40.8765V52.3343H45.1928Z" fill="#33353D"/>
<path d="M54.7579 53.7508V48.2485L52.5325 52.346H51.6208L49.3954 48.2485V53.7508H47.7171V45.4388H49.5168L52.0707 50.1684L54.6483 45.4388H56.4356V53.7508H54.7579Z" fill="#33353D"/>
<path d="M61.9105 45.4388H63.3941L66.6773 53.7508H64.9505L64.1483 51.6787H61.1326L60.3423 53.7508H58.6154L61.9105 45.4388ZM63.844 50.5431L62.6523 47.2768L61.412 50.5431H63.844Z" fill="#33353D"/>
<path d="M68.8399 53.7508V45.4388H72.6584C73.0556 45.4388 73.4203 45.5207 73.753 45.6846C74.0934 45.8407 74.3853 46.0515 74.628 46.3168C74.8713 46.5744 75.062 46.8709 75.1999 47.2065C75.3378 47.5343 75.4065 47.866 75.4065 48.2016C75.4065 48.7402 75.2644 49.2319 74.9809 49.6767C74.7056 50.1138 74.3285 50.4299 73.8501 50.625L75.8197 53.7508H73.9354L72.1718 50.9645H70.5183V53.7508H68.8399ZM70.5183 49.548H72.6217C72.7762 49.548 72.9177 49.5128 73.0474 49.4426C73.1853 49.3724 73.3031 49.2787 73.4002 49.1616C73.4973 49.0367 73.5742 48.8924 73.6311 48.7285C73.6879 48.5646 73.7163 48.389 73.7163 48.2016C73.7163 48.0066 73.6838 47.827 73.6192 47.6631C73.5541 47.4992 73.4647 47.3587 73.3516 47.2417C73.2463 47.1168 73.1202 47.0232 72.9745 46.9607C72.8366 46.8905 72.6951 46.8553 72.5489 46.8553H70.5183V49.548Z" fill="#33353D"/>
<path d="M78.143 53.7508V45.4505H79.8213V49.3958L83.445 45.4388H85.2932L81.9857 49.1265L85.4999 53.7508H83.6149L80.9278 50.1567L79.8213 51.2689V53.7508H78.143Z" fill="#33353D"/>
<path d="M0.842528 64.449V59.2405H2.882C3.09275 59.2405 3.28456 59.2894 3.4592 59.3872C3.63799 59.4802 3.79014 59.6073 3.91564 59.7687C4.04529 59.9252 4.14593 60.1037 4.21756 60.3042C4.2892 60.4999 4.32472 60.7004 4.32472 60.9058C4.32472 61.0867 4.30045 61.2628 4.25131 61.434C4.20632 61.6003 4.13942 61.7518 4.05003 61.8888C3.96478 62.0257 3.8594 62.1431 3.73449 62.241C3.61372 62.3388 3.47696 62.4097 3.32482 62.4537L4.47923 64.449H3.79487L2.70795 62.5784H1.44637V64.449H0.842528ZM1.44637 61.9915H2.8891C3.01401 61.9915 3.12591 61.9622 3.22418 61.9035C3.32719 61.8448 3.41481 61.7666 3.48644 61.6688C3.55748 61.5661 3.61372 61.4487 3.65398 61.3166C3.69423 61.1846 3.71436 61.0476 3.71436 60.9058C3.71436 60.7591 3.68949 60.6222 3.64036 60.495C3.59596 60.3629 3.5332 60.248 3.45269 60.1502C3.37632 60.0475 3.28456 59.9693 3.17741 59.9154C3.0744 59.8567 2.96488 59.8274 2.84884 59.8274H1.44637V61.9915Z" fill="#33353D"/>
<path d="M9.15728 63.8622V64.449H5.92313V59.2405H9.09689V59.8274H6.52698V61.5147H8.76122V62.0649H6.52698V63.8622H9.15728Z" fill="#33353D"/>
<path d="M12.1062 59.2405H12.6159L14.5618 64.449H13.9177L13.3541 62.9232H11.3549L10.7978 64.449H10.1537L12.1062 59.2405ZM13.2197 62.4097L12.3613 60.0035L11.4757 62.4097H13.2197Z" fill="#33353D"/>
<path d="M15.8684 64.449V59.2405H16.4722V63.8622H19.1298V64.449H15.8684Z" fill="#33353D"/>
<path d="M25.8569 63.8622V64.449H22.6227V59.2405H25.7965V59.8274H23.2266V61.5147H25.4614V62.0649H23.2266V63.8622H25.8569Z" fill="#33353D"/>
<path d="M30.1542 60.3332C30.1009 60.2647 30.0293 60.1987 29.9399 60.1351C29.8499 60.0715 29.7493 60.0153 29.638 59.9664C29.5261 59.9126 29.403 59.871 29.2686 59.8417C29.1389 59.8074 29.0028 59.7903 28.8595 59.7903C28.4883 59.7903 28.2154 59.8661 28.0407 60.0178C27.8708 60.1694 27.7856 60.3772 27.7856 60.6413C27.7856 60.7831 27.8105 60.9005 27.8596 60.9934C27.9087 61.0863 27.9851 61.1671 28.0875 61.2355C28.1953 61.2991 28.3273 61.3553 28.4836 61.4042C28.6404 61.4531 28.8257 61.5045 29.0406 61.5583C29.2863 61.617 29.5077 61.6855 29.7049 61.7637C29.9062 61.8371 30.0761 61.93 30.2146 62.0425C30.3579 62.1549 30.465 62.2919 30.5367 62.4533C30.613 62.6147 30.6509 62.8128 30.6509 63.0475C30.6509 63.2969 30.6059 63.5145 30.5165 63.7004C30.4271 63.8814 30.304 64.033 30.1477 64.1552C29.9956 64.2726 29.8144 64.3606 29.6042 64.4193C29.3941 64.4731 29.1656 64.5 28.9199 64.5C28.5528 64.5 28.2041 64.4389 27.8732 64.3166C27.5464 64.1894 27.2492 64.0061 26.9805 63.7664L27.2694 63.2089C27.341 63.292 27.4328 63.3751 27.544 63.4583C27.6607 63.5414 27.7903 63.6172 27.9336 63.6857C28.081 63.7493 28.2379 63.8031 28.4031 63.8471C28.573 63.8862 28.75 63.9058 28.9329 63.9058C29.2733 63.9058 29.5373 63.8398 29.725 63.7077C29.9127 63.5757 30.0068 63.3776 30.0068 63.1135C30.0068 62.9668 29.9754 62.8445 29.9127 62.7467C29.8547 62.644 29.7676 62.556 29.651 62.4826C29.535 62.4093 29.3893 62.3457 29.2153 62.2919C29.0448 62.2332 28.8506 62.1745 28.631 62.1158C28.3894 62.0522 28.1775 61.9838 27.994 61.9104C27.8105 61.8371 27.6559 61.749 27.531 61.6463C27.4103 61.5436 27.3185 61.4189 27.2557 61.2722C27.193 61.1255 27.1616 60.9494 27.1616 60.744C27.1616 60.4946 27.2042 60.2745 27.2895 60.0837C27.3741 59.893 27.4931 59.7316 27.6447 59.5996C27.7968 59.4676 27.978 59.3697 28.1882 59.3061C28.3989 59.2377 28.6268 59.2034 28.8725 59.2034C29.1952 59.2034 29.4858 59.2572 29.7451 59.3648C30.0044 59.4725 30.2347 59.6167 30.436 59.7977L30.1542 60.3332Z" fill="#33353D"/>
<path d="M35.5516 59.8274H33.9076V64.449H33.3038V59.8274H31.6598V59.2405H35.5516V59.8274Z" fill="#33353D"/>
<path d="M37.9059 59.2405H38.4156L40.3616 64.449H39.7175L39.1539 62.9232H37.1541L36.597 64.449H35.9529L37.9059 59.2405ZM39.0195 62.4097L38.1605 60.0035L37.2748 62.4097H39.0195Z" fill="#33353D"/>
<path d="M44.651 59.8274H43.007V64.449H42.4032V59.8274H40.7598V59.2405H44.651V59.8274Z" fill="#33353D"/>
<path d="M49.2425 63.8622V64.449H46.0089V59.2405H49.1821V59.8274H46.6128V61.5147H48.847V62.0649H46.6128V63.8622H49.2425Z" fill="#33353D"/>
<path d="M56.3439 63.8622V64.449H53.1098V59.2405H56.2835V59.8274H53.7136V61.5147H55.9479V62.0649H53.7136V63.8622H56.3439Z" fill="#33353D"/>
<path d="M57.9643 59.2405L59.4135 61.412L60.8628 59.2405H61.527L59.7356 61.8815L61.4731 64.449H60.8089L59.4135 62.3509L58.0182 64.449H57.3468L59.085 61.8815L57.293 59.2405H57.9643Z" fill="#33353D"/>
<path d="M62.7869 64.449V59.2405H64.7725C64.9833 59.2405 65.1751 59.2894 65.3497 59.3872C65.5285 59.4802 65.6806 59.6073 65.8062 59.7687C65.9358 59.9252 66.0365 60.1037 66.1081 60.3042C66.1797 60.4999 66.2152 60.7004 66.2152 60.9058C66.2152 61.121 66.1821 61.3288 66.1146 61.5293C66.0477 61.7298 65.9512 61.9084 65.8263 62.0649C65.7055 62.2214 65.5575 62.3461 65.3835 62.439C65.2136 62.5319 65.0235 62.5784 64.8128 62.5784H63.3908V64.449H62.7869ZM63.3908 61.9915H64.7796C64.9045 61.9915 65.0164 61.9646 65.1147 61.9108C65.2177 61.8521 65.3053 61.7739 65.3764 61.6761C65.448 61.5734 65.5042 61.456 65.5445 61.3239C65.5847 61.1919 65.6049 61.0525 65.6049 60.9058C65.6049 60.7542 65.58 60.6124 65.5309 60.4803C65.4865 60.3483 65.4237 60.2333 65.3432 60.1355C65.2668 60.0377 65.1751 59.9619 65.0679 59.9081C64.9649 59.8543 64.8554 59.8274 64.7394 59.8274H63.3908V61.9915Z" fill="#33353D"/>
<path d="M70.8719 63.8622V64.449H67.6378V59.2405H70.8115V59.8274H68.2422V61.5147H70.4765V62.0649H68.2422V63.8622H70.8719Z" fill="#33353D"/>
<path d="M72.3714 64.449V59.2405H74.4115C74.6216 59.2405 74.814 59.2894 74.9881 59.3872C75.1675 59.4802 75.319 59.6073 75.4445 59.7687C75.5742 59.9252 75.6748 60.1037 75.7464 60.3042C75.8181 60.4999 75.8536 60.7004 75.8536 60.9058C75.8536 61.0867 75.8293 61.2628 75.7802 61.434C75.7352 61.6003 75.6683 61.7518 75.5789 61.8888C75.4937 62.0257 75.3889 62.1431 75.2634 62.241C75.1426 62.3388 75.0058 62.4097 74.8543 62.4537L76.0081 64.449H75.3238L74.2368 62.5784H72.9753V64.449H72.3714ZM72.9753 61.9915H74.418C74.5429 61.9915 74.6548 61.9622 74.7537 61.9035C74.8561 61.8448 74.9437 61.7666 75.0153 61.6688C75.0863 61.5661 75.1426 61.4487 75.1829 61.3166C75.2231 61.1846 75.2432 61.0476 75.2432 60.9058C75.2432 60.7591 75.2184 60.6222 75.1692 60.495C75.1248 60.3629 75.0621 60.248 74.9816 60.1502C74.9052 60.0475 74.814 59.9693 74.7063 59.9154C74.6033 59.8567 74.4938 59.8274 74.3777 59.8274H72.9753V61.9915Z" fill="#33353D"/>
<path d="M80.8486 59.8274H79.2046V64.449H78.6008V59.8274H76.9567V59.2405H80.8486V59.8274Z" fill="#33353D"/>
<path d="M85.0029 60.3332C84.9496 60.2647 84.878 60.1987 84.7886 60.1351C84.6992 60.0715 84.5986 60.0153 84.4867 59.9664C84.3748 59.9126 84.2517 59.871 84.1173 59.8417C83.9876 59.8074 83.8515 59.7903 83.7082 59.7903C83.337 59.7903 83.0641 59.8661 82.8895 60.0178C82.7196 60.1694 82.6343 60.3772 82.6343 60.6413C82.6343 60.7831 82.6592 60.9005 82.7083 60.9934C82.7574 61.0863 82.8338 61.1671 82.9368 61.2355C83.044 61.2991 83.176 61.3553 83.3323 61.4042C83.4892 61.4531 83.6745 61.5045 83.8894 61.5583C84.135 61.617 84.3565 61.6855 84.5536 61.7637C84.7549 61.8371 84.9248 61.93 85.0633 62.0425C85.2066 62.1549 85.3137 62.2919 85.3854 62.4533C85.4617 62.6147 85.4996 62.8128 85.4996 63.0475C85.4996 63.2969 85.4546 63.5145 85.3652 63.7004C85.2758 63.8814 85.1527 64.033 84.9964 64.1552C84.8443 64.2726 84.6631 64.3606 84.4529 64.4193C84.2428 64.4731 84.0143 64.5 83.7686 64.5C83.4015 64.5 83.0528 64.4389 82.7219 64.3166C82.3951 64.1894 82.0979 64.0061 81.8292 63.7664L82.1181 63.2089C82.1897 63.292 82.2815 63.3751 82.3928 63.4583C82.5094 63.5414 82.639 63.6172 82.7823 63.6857C82.9297 63.7493 83.0866 63.8031 83.2518 63.8471C83.4217 63.8862 83.5987 63.9058 83.7822 63.9058C84.122 63.9058 84.3861 63.8398 84.5737 63.7077C84.7614 63.5757 84.8555 63.3776 84.8555 63.1135C84.8555 62.9668 84.8241 62.8445 84.7614 62.7467C84.7034 62.644 84.6164 62.556 84.4997 62.4826C84.3837 62.4093 84.2381 62.3457 84.064 62.2919C83.8935 62.2332 83.6993 62.1745 83.4803 62.1158C83.2387 62.0522 83.0262 61.9838 82.8427 61.9104C82.6592 61.8371 82.5046 61.749 82.3797 61.6463C82.259 61.5436 82.1672 61.4189 82.1044 61.2722C82.0417 61.1255 82.0103 60.9494 82.0103 60.744C82.0103 60.4946 82.0529 60.2745 82.1382 60.0837C82.2229 59.893 82.3418 59.7316 82.4934 59.5996C82.6455 59.4676 82.8267 59.3697 83.0375 59.3061C83.2476 59.2377 83.4755 59.2034 83.7218 59.2034C84.0439 59.2034 84.3346 59.2572 84.5939 59.3648C84.8532 59.4725 85.0834 59.6167 85.2847 59.7977L85.0029 60.3332Z" fill="#33353D"/>
</svg>
