<svg width="24" height="25" viewBox="0 0 24 25" fill="none" xmlns="http://www.w3.org/2000/svg">
<path d="M21.1411 18.0312C20.3968 17.2812 18.594 16.1867 17.7193 15.7456C16.5802 15.1718 16.4865 15.1249 15.5911 15.7901C14.994 16.234 14.5969 16.6306 13.898 16.4815C13.1991 16.3324 11.6804 15.492 10.3505 14.1663C9.02067 12.8407 8.13145 11.2779 7.98192 10.5813C7.83239 9.88478 8.23551 9.49244 8.6752 8.89385C9.29489 8.0501 9.24801 7.90947 8.71832 6.77041C8.30536 5.88447 7.17895 4.09853 6.42614 3.35791C5.62082 2.56244 5.62083 2.70306 5.10192 2.91869C4.67947 3.09643 4.27418 3.31249 3.89114 3.56416C3.14114 4.06244 2.72489 4.47635 2.43379 5.09838C2.1427 5.72041 2.01192 7.17869 3.5152 9.90963C5.01848 12.6406 6.07317 14.037 8.25614 16.2138C10.4391 18.3907 12.1177 19.5612 14.5716 20.9374C17.6072 22.6376 18.7716 22.3062 19.3955 22.0156C20.0194 21.7249 20.4352 21.3124 20.9344 20.5624C21.1867 20.18 21.4033 19.7752 21.5813 19.3531C21.7974 18.836 21.938 18.836 21.1411 18.0312Z" stroke="#2B2B31" stroke-miterlimit="10"/>
</svg>
